<?xml version="1.0" encoding="UTF-8"?>
<svg id="Layer_1" data-name="Layer 1" xmlns="http://www.w3.org/2000/svg" viewBox="0 0 400 300">
  <defs>
    <style>
      .cls-1 {
        fill: #4d4d4d;
      }

      .cls-2 {
        fill: #333;
      }

      .cls-3 {
        fill: #778a1a;
      }

      .cls-4 {
        fill: #91a80d;
      }

      .cls-5 {
        fill: #6a7c17;
      }

      .cls-6 {
        fill: #899f1f;
      }

      .cls-7 {
        fill: #749d65;
      }
    </style>
  </defs>
  <circle class="cls-6" cx="96.33" cy="171.04" r="17.16"/>
  <circle class="cls-6" cx="61.07" cy="168.12" r="11"/>
  <path class="cls-7" d="M41.16,163.15c7.15,4.7,20.02.15,29.86,10.5,4.69,10.18,24.94,1.68,44.55,2.78,16.34.85,32.87-.74,48.22-1.2,14.2.27,25.01,1.93,39.11,3.42l2.3-1.46c6.4,2.13,18.36,3.05,23.98,1.03,15.76-5.74-29.2-4.3-13.35-11.25-9.66-2.38-20.63-2-30.32-3.97-3.23-.66-5.25-2.86-9.57-3.6-7.55-1.4-14.17-.68-20.66-1.59-19.51-2.32-31.41-4.05-53.31-3.7-20.79.04-39.21-1.62-59.99-1.58-12.03-.11-27.69,4.46-.82,10.62Z"/>
  <path class="cls-1" d="M211.75,123.19c-2.64-1.04-5.8-.09-5.8-.09,0,0-.21-.74-.25-2.6-.02-.89.53-1.2.41-1.93-.24-1.46-1.66-2.53-2.17-2.54-1.87-.02-1.37.84-3.16-1.08-1.79-1.92-2.04-1.79-3.15-1.51-1.76.45-1.83.39-1.83.39,0,0,.69-1.49.19-3.26-.59-2.11-.83-1.75-1.58-2.99-.81-1.35-2.89,0-3.86,2.3-3.19-4.88-8.55-13.16-11.56-18.42-4.48-7.82-5.21-12.67-6.94-16.58-1.73-3.91-.72-4.31-2.89-6.6-2.17-2.29-3.18-3.51-6.79-4.05-3.61-.54-2.31-2.15-7.08-3.64-4.77-1.48-13.16-2.83-16.77-2.43-3.61.4-5.06-.54-9.11-.81-4.05-.27-26.17.41-35.27,2.02-9.11,1.62-15.33-.67-20.82.95-4.54,1.33-13.22,1.12-16.66,5.49-1.79.98-5.85,4.32-5.85,14.48,0,13,2.6,23.77,0,30.46-2.6,6.69-4.27,4.27-1.3,9.28,2.87,4.84-2.55,1.4-.25,6.17-.21.55-.43,1.01-.64,1.3-.44.61-.34,1.79-.15,3.22-.25.27-.26.74.22,1.66.2,1.51.35,3.15.07,4.66-2.1,11.43-3.49,9.87-3.16,14.02.06.82,1.33-.25,1.59.49q1.55,4.46.79,9.27s2.6,1.9,5.67,1.81c3.07-.09,7.33-1.48,7.33-1.48,0,0-1.97-3.65-3.85-4.19-5.81-1.67-2.6-6.71-2.84-8.07-.58-3.32.78-11.29,2.63-14.55,1.86-3.25,5.42-10.54,5.42-10.54l3.91-8.19c2,1.96,1.57,3.66,2.08,5.51-.15.35-.28.68-.41.96-1.87,4.23-3.78,3.5-2.02,6.74,1.75,3.24,2.97,17.39,4.32,21.16,1.35,3.77-.95,4.99,1.35,5.93,2.29.94,1.02,2.6,1.69,5.17,0,0,4.14,1.44,8.05.49,3.91-.94,2.39-1.23.64-3.37-2.51-3.07-3.1-3.37-3.1-3.37,0,0-1.48-2.16-3.24-7.41-1.75-5.26-.67-15.37,1.62-20.76.69-1.61,2.21-3.85,4-6.2.14,1.31,1.19,1.13,2.24-1.59,1.3-3.37.47.36,2.93-.99,2.46-1.34,1.4-.27,4.58-1.48,3.18-1.21,1.3-1.61,5.35.67,4.05,2.29,8.67,1.35,18.07,1.62,3.44.1,7.31-.09,10.96-.17,1.45,4.92,3.1,11.16,2.74,15.41-.42,4.85,1.61,3.5,1.2,8.9-.41,5.39-.18,7.14-1.2,11.05-.56,2.17-2.17,4.58-.96,5.26,1.22.67,3.47.36,1.7,2.38-1.77,2.02.59,1.79,1.53,4.62l.94,2.83s7.43,1.49,10.39,0c2.97-1.48.39-3.1-2.71-5.8-3.1-2.7-2.56-2.55-2.56-2.55,0,0-.68-1.93-2.03-4.9-1.35-2.97-.17-2.82.01-5.9.26-4.59,0-4.58,1.75-8.63,1.75-4.04,1.48-5.25.94-9.77-.36-2.99.24-7.07,1.31-11.05.27.22.51.47.7.74,2.75,4.04,2.31,5.8,7.08,6.61,4.77.81,2.89-2.56,8.53-3.91.07-.02.13-.03.2-.05.97,5.37,3.77,7.78,4.15,11.37.4,3.77.13,3.1,2.96,5.39,2.83,2.29,3.1,7.82,3.5,12,.4,4.18.13,3.5,2.56,4.85,2.43,1.35,1.35,4.31,1.35,4.31,0,0,1.71,2.37,5.93,2.29,3.99-.07,7.55-.81,7.55-.81-.68-3.77-4.45-3.1-6.47-5.8-2.02-2.7-2.7-2.16-4.85-6.47-2.16-4.32-4.32-9.17-3.91-12.94.4-3.77.54-4.85-1.08-7.95-.63-1.2-1.33-4.44-1.96-7.96.24-.08.49-.17.76-.26,4.05-1.48,5.93,2.43,7.08,5.26.62,1.51,3.53,6.1,6.13,10.06.82,1.61,1.81,3.49,2.96,5.94,3.49,7.48,5.73,5.61,8.22,9.84,2.49,4.24.28,1.98,4.5,5.39,1.25,1.01,6.95-.64,7.2-3.49.25-2.85-.24-2.78-.24-7.14,0-1.3-.21-2.82-.44-4.36.06-.71.18-1.44.39-2.2.94-3.43.42-5.49,1.69-7.26,1.27-1.76,2.87-1.87,3.29-3.57.42-1.71.73-2.55.73-2.55,0,0,4.29,1.61,5.68-.56,1.01-1.58,1.79-2.95-.85-3.99ZM55.19,104.68c1.04,5.31-.75,8.17-2.35,10.4-.44-4.8.81-9.05.42-16.22-.4-7.43-1.17-13.56,1.03-19.31.07-.18.14-.34.21-.51-.14,3.17-.23,5.85-.69,8.13-.87,4.31.72,5.8.72,5.8l2.71,4.44c-1.37,3.13-2.36,5.71-2.05,7.28Z"/>
  <path class="cls-6" d="M162.75,164.21c1.25-1.4,3.91-1.65,5.38-.63,1.72,1.2,2.07,3.93,3.05,5.55-.03-1.14.7-2.65,1.78-3.27.25-.15.53-.24.81-.27,1.43-.16,1.73,1,1.85,2.21.05.51.07,1.03.12,1.47.16-.39.35-.84.59-1.32,1.44-2.98,4.26-7.22,7.54-6.75.31.05.62.13.94.26,3.28,1.4,2.64,4.99,1.44,8,0,0,0,.02-.01.03-.06.14-.11.28-.17.41,0,0,0,0,0,0,0,0,0,0,0,0-.11.25-.21.49-.32.73-.39.86-.8,1.62-1.11,2.22,1.52-.16,2.8-2.18,4.52-1.01.84.58.86,1.36.63,2.16-.17.56-.46,1.13-.68,1.64h-22.38s-.03,0-.03,0c-.14-.11-.28-.22-.43-.35-2.74-2.35-6.39-7.86-3.52-11.08Z"/>
  <path class="cls-3" d="M147.14,154.96c.38.31.74.65,1.1,1.01,2.84,2.86,5.01,7.11,6.05,9.7.24-1.95.02-4.95,1.84-5.64.34-.13.74-.19,1.24-.13,2.18.24,3.84,2.87,4.04,5,.02.19.03.37.02.54,1.22-2.02,1.82-5.13,3.37-7.27.4-.55.86-1.04,1.41-1.42.29-.2.61-.37.95-.51,2.36-.96,5.76-.41,7.47,1.5,2,2.24,1.98,5.2.96,8.11-1.08.62-1.81,2.13-1.78,3.27-.98-1.62-1.33-4.35-3.05-5.55-1.47-1.02-4.12-.77-5.38.63-2.87,3.22.78,8.73,3.52,11.08-.15.12-.29.24-.44.35h-.05s-35.03,0-35.03,0c-.84-1.91-2.33-4.4-.08-5.94,2.69-1.85,4.7,1.32,7.07,1.57-2.33-4.4-7.68-14.69-.28-17.83,1.08-.46,2.13-.56,3.15-.4.14.02.28.05.42.08,1.23.28,2.4.95,3.49,1.85Z"/>
  <path class="cls-3" d="M212.54,172.9c-.38.31-.74.65-1.1,1.01-2.84,2.86-5.01,7.11-6.05,9.7-.24-1.95-.02-4.95-1.84-5.64-.34-.13-.74-.19-1.24-.13-2.18.24-3.84,2.87-4.04,5-.02.19-.03.37-.02.54-1.22-2.02-1.82-5.13-3.37-7.27-.4-.55-.86-1.04-1.41-1.42-.29-.2-.61-.37-.95-.51-2.36-.96-5.76-.41-7.47,1.5-2,2.24-1.98,5.2-.96,8.11,1.08.62,1.81,2.13,1.78,3.27.98-1.62,1.33-4.35,3.05-5.55,1.47-1.02,4.12-.77,5.38.63,2.87,3.22-.78,8.73-3.52,11.08.15.12.29.24.44.35h.05s35.03,0,35.03,0c.84-1.91,2.33-4.4.08-5.94-2.69-1.85-4.7,1.32-7.07,1.57,2.33-4.4,7.68-14.69.28-17.83-1.08-.46-2.13-.56-3.15-.4-.14.02-.28.05-.42.08-1.23.28-2.4.95-3.49,1.85Z"/>
  <path class="cls-6" d="M214.75,165.52c-1.25-1.4-3.91-1.65-5.38-.63-1.72,1.2-2.07,3.93-3.05,5.55.03-1.14-.7-2.65-1.78-3.27-.25-.15-.53-.24-.81-.27-1.43-.16-1.73,1-1.85,2.21-.05.51-.07,1.03-.12,1.47-.16-.39-.35-.84-.59-1.32-1.44-2.98-4.26-7.22-7.54-6.75-.31.05-.62.13-.94.26-3.28,1.4-2.64,4.99-1.44,8,0,0,0,.02.01.03.06.14.11.28.17.41,0,0,0,0,0,0,0,0,0,0,0,0,.11.25.21.49.32.73.39.86.8,1.62,1.11,2.22-1.52-.16-2.8-2.18-4.52-1.01-.84.58-.86,1.36-.63,2.16.17.56.46,1.13.68,1.64h22.41c.14-.11.28-.23.43-.35,2.74-2.35,6.39-7.86,3.52-11.08Z"/>
  <path class="cls-7" d="M215.61,196.76c6.34-4.12,30.07.44,28.22.44,4.62-9.76,21.92-2.92,38.53-2.51,13.84.41,27.96-.08,40.88,1.55,12,.81,21.23,0,33.22-.41l1.85,1.63c5.54-1.63,3.26-.55,7.87,1.89,12.92,6.91-12.49.96.43,9.09-8.31,1.63-17.54.41-25.84,1.63-2.77.41-4.62,2.44-8.31,2.85-6.46.81-12-.41-17.54,0-16.61.81-26.76,1.63-45.22-.41-17.54-1.62-33.19-1.39-50.72-3.02-10.15-.81-26.45-8.65-3.38-12.72Z"/>
  <path class="cls-6" d="M229.25,199.71c-1.25-1.4-3.91-1.65-5.38-.63-1.72,1.2-2.07,3.93-3.05,5.55.03-1.14-.7-2.65-1.78-3.27-.25-.15-.53-.24-.81-.27-1.43-.16-1.73,1-1.85,2.21-.05.51-.07,1.03-.12,1.47-.16-.39-.35-.84-.59-1.32-1.44-2.98-4.26-7.22-7.54-6.75-.31.05-.62.13-.94.26-3.28,1.4-2.64,4.99-1.44,8,0,0,0,.02.01.03.06.14.11.28.17.41,0,0,0,0,0,0,0,0,0,0,0,0,.11.25.21.49.32.73.39.86.8,1.62,1.11,2.22-1.52-.16-2.8-2.18-4.52-1.01-.84.58-.86,1.36-.63,2.16.17.56.46,1.13.68,1.64h22.41c.14-.11.28-.23.43-.35,2.74-2.35,6.39-7.86,3.52-11.08Z"/>
  <path class="cls-3" d="M247.49,190.46c-.38.31-.74.65-1.1,1.01-2.84,2.86-5.01,7.11-6.05,9.7-.24-1.95-.02-4.95-1.84-5.64-.34-.13-.74-.19-1.24-.13-2.18.24-3.84,2.87-4.04,5-.02.19-.03.37-.02.54-1.22-2.02-1.82-5.13-3.37-7.27-.4-.55-.86-1.04-1.41-1.42-.29-.2-.61-.37-.95-.51-2.36-.96-5.76-.41-7.47,1.5-2,2.24-1.98,5.2-.96,8.11,1.08.62,1.81,2.13,1.78,3.27.98-1.62,1.33-4.35,3.05-5.55,1.47-1.02,4.12-.77,5.38.63,2.87,3.22-.78,8.73-3.52,11.08.15.12.29.24.44.35h.05s35.03,0,35.03,0c.84-1.91,2.33-4.4.08-5.94-2.69-1.85-4.7,1.32-7.07,1.57,2.33-4.4,7.68-14.69.28-17.83-1.08-.46-2.13-.56-3.15-.4-.14.02-.28.05-.42.08-1.23.28-2.4.95-3.49,1.85Z"/>
  <path class="cls-2" d="M192.07,71.01c.85.54-1.18,2.79-4.33,4.49-2.23,1.21-3.91,3.32-6.46,7.15-2.56,3.83-2.46,2.59-3.45,3.16-.99.57-7.48,9.76-9.04,11.18-1.56,1.43-3.55,2.84-3.55,3.98s-3.26,2.84-.42,5.11c2.84,2.27,9.23,3.55,10.79,2.41,1.56-1.14,5.54.85,7.1,1.84,1.56.99,9.64,1.12,11.35.56,1.71-.57,3-1.55,4.27-.7,1.28.85,2.59,1.5,3.87,1.36,1.28-.14,2.86,1.74,4.14,2.23,2.65,1.03,2.92,1.24,4.63,2.95,1.7,1.7,6.96,6.24,7.95,11.35,1,5.11,2.44,9.55,4.43,11.11,1.99,1.56,3.52,6.5,6.36,8.34,2.83,1.85,4.68,5.82,7.52,6.25,2.84.43,4.26.86,4.26.86,0,0,1,7.24.29,8.94-.71,1.71.28,4.41.85,5.68.57,1.28,2.08-.31.66,9.36-.2,1.37-.71,7.9-3.19,9.56-4.06,2.71-5.55,7.43-5.55,7.43,0,0,5.18,1.34,8.97.71,1.42-.24,1.46-3,3.77-4.25,3.07-1.66,3.42-2.72,3.3-7.2-.13-5,.14-11.53.71-14.51.2-1.04,1.29-3.58,1.65-6.25.66-4.97-.05-12.41.31-12.31.57.14,1.92,14.98,3.63,17.54,1.71,2.55,3.49,2.56,2.62,8.72-.49,3.47-.22,7.77-.08,10.47.07,1.32-2.01,4.28-2.01,5.54,0,.13-1.4,1.01-2.47,2.12-.9.93-1.5,2.11-1.42,2.24,1.42,2.12,11.25,1.27,11.92.11.39-.67.24-1.41,1.89-2.71,1.1-.87-.73-3.42-.71-4.84.03-1.85,1.77-1.53,2.12-3.54.54-3.05-1.75-9.32-2.48-14.39-.23-1.65,1.41-2.36,1.65-5.07.09-1.11-2.36-21.2-2.36-22.77,0-1.56,5.49-1.94,8.79-.26,7.94,4.05,16.08,4.08,20.42,4.86,4.72.85,8.31.49,13.13-.79,4.83-1.28,6.26-1.73,6.69-.8,1.26,2.7,5.02,3.23,6.57,4.08,1.57.85.52,3.73.52,5.71s.85,2.84,1.56.71c.71-2.13,1.81-3.66,3.24-3.8,1.42-.14.6,3.51,1.02,4.65.42,1.14,1.42-1.28,1.99-2.56.57-1.27,1.66-.56,2.37.01.71.56.33,3.54.47,4.11.14.56,1.43-.23,1.5-.1.79,1.51,1.91,1.38,2.19-1.46.28-2.84,0-2.41,1.42-2.41s1.51.13,1.51.13c0,0,.76,9.52.19,12.08-.57,2.56-1.31,3.22-1.53,4.55-.35,2.15-3.27,10.55-5.43,12.03-4.96,3.42-8.97,9.84-8.97,10.26,0,.43,9.59,1.78,12.15-.35.83-.69,2.14-2.44,2.25-4.48.12-2.24,2.79-.87,3.89-2.48,1.21-1.76.03-1.31-.12-2.36-.43-2.98,3.96-6.52,4.28-9.64.79-7.7,6.21-18.55,6.21-18.55,0,0,1.93,8.43,3.07,12.27,1.13,3.84.62,12.45-.79,15.75-.58,1.36.23,6.37-2.48,8.26-1.71,1.19-4.48,5.66-4.48,5.66,0,0,6.07,1.71,10.62,0,4.55-1.7.37-5.18,3.07-9.44.45-.71,1.5.72,1.77-.12,1.35-4.23-.47-2.95.12-15.34.19-3.97,3.18-8.16,2.47-9.87-.71-1.7-.7-7.59-.31-8.81,1.26-3.93-5.19-8.97-5.98-15.89-.54-4.79-.79-7.39.16-11.32,1.45-6.03,6.51-11.9,8.18-18.56.48-1.92,2.23,11.86,1.95,18.95-.29,7.1.83,11.98.4,14.39-.42,2.41-1.63,5.33-.92,7.75.71,2.41,1.65,3.7.37,6.69-1.28,2.98-.57,4.68-.29,5.82.29,1.14-2.13,2.41-.42,5.11,1.7,2.7.99,6.39.99,6.39,0,0,1.98-5.96.85-7.81-1.14-1.85.57-3.12.99-5.68.43-2.55-.43-3.27-.14-5.68.28-2.41,1.91-4.51,1.91-8.06s-1.91-3.59-1.91-7.85-.72-29.03-1.28-32.86c-.63-4.4-1.54-4.15-1.89-6.92-.36-2.9-.85-4.85-1.78-5.69-.72-.66-1.9-7.55-10.81-10.04-4.95-1.39-8.63.78-12.71-1.12-6.79-3.17-10.08.03-21.01-.39-10.93-.43-16.67-2.05-18.51-1.9-1.84.14-4.86-.17-7.42.26-2.55.43-6.69-.75-9.39-2.17-2.7-1.42-16.74-.18-23.1-.78-11.9-1.12-19.55-.34-24.14.99-3.78,1.1-9.42,2.57-15.67,1.43-6.25-1.14-8.47-2.56-8.47-2.56,0,0,2.23-2.49,1.96-5.18-.12-1.25-3.55-.79-3.55-.79,0,0-3.04-.16-4.21-.52-3.15-.97-1.72-.45-3.7-.99-.87-.23-1.81,1.36-2.98-.36-.83-1.22-.73-.88-2.7-2.33-1.75-1.28-2.42-.82-3.42-1.24-.99-.43-1.72.49-1.72.49,0,0-3.19-1.96-4.92-5.41-1.31-2.63-1.61-5.94-1.61-5.94,0,0-1.14,1.31-1.14,3.58s1.14,7.93,5.11,10.48Z"/>
  <path class="cls-4" d="M257.4,194.09c-.36-.36-.72-.7-1.1-1.01-.42-2.05-.89-4.2-1.42-6.4-.07-11.38,1.15-21.42,1.15-21.42.2,1.11.38,2.26.53,3.43.15,1.1.27,2.22.38,3.36.73,7.57.69,15.68.45,22.04Z"/>
  <path class="cls-5" d="M250.32,180.82c-1.47-7.03-3.35-17.48-3.35-17.48.61,1.26,1.19,2.56,1.75,3.89.47,1.12,3.59,10.02,3.66,10.24.95,3.1,1.78,6.21,2.51,9.21.53,2.21,1,4.35,1.42,6.4-1.09-.9-2.26-1.56-3.49-1.85-.15-.57-.3-1.14-.44-1.71-.24-.93-.47-1.86-.69-2.78-.49-2.03-.95-4.02-1.37-5.92Z"/>
  <path class="cls-4" d="M274.66,192.87c3.68-8.35,7.87-15.29,7.87-15.29-1.36,5.48-3.81,11.56-6.2,16.79-.34.14-.66.31-.95.51-.55.38-1.01.87-1.41,1.42.24-1.11.47-2.26.69-3.43Z"/>
  <path class="cls-5" d="M276.53,173.2c.18,6.4-.7,13.4-1.87,19.67-.22,1.17-.45,2.32-.69,3.43-1.55,2.14-2.16,5.25-3.37,7.27,0-.18,0-.36-.02-.54.68-5.74,1.76-11.63,2.81-16.64,1.6-7.6,3.14-13.18,3.14-13.18Z"/>
  <path class="cls-3" d="M256.31,193.08c.38.31.74.65,1.1,1.01,2.84,2.86,5.01,7.11,6.05,9.7.24-1.95.02-4.95,1.84-5.64.34-.13.74-.19,1.24-.13,2.18.24,3.84,2.87,4.04,5,.02.19.03.37.02.54,1.22-2.02,1.82-5.13,3.37-7.27.4-.55.86-1.04,1.41-1.42.29-.2.61-.37.95-.51,2.36-.96,5.76-.41,7.47,1.5,2,2.24,1.98,5.2.96,8.11-1.08.62-1.81,2.13-1.78,3.27-.98-1.62-1.33-4.35-3.05-5.55-1.47-1.02-4.12-.77-5.38.63-2.87,3.22.78,8.73,3.52,11.08-.15.12-.29.24-.44.35h-.05s-35.03,0-35.03,0c-.84-1.91-2.33-4.4-.08-5.94,2.69-1.85,4.7,1.32,7.07,1.57-2.33-4.4-7.68-14.69-.28-17.83,1.08-.46,2.13-.56,3.15-.4.14.02.28.05.42.08,1.23.28,2.4.95,3.49,1.85Z"/>
  <path class="cls-6" d="M274.54,202.34c1.25-1.4,3.91-1.65,5.38-.63,1.72,1.2,2.07,3.93,3.05,5.55-.03-1.14.7-2.65,1.78-3.27.25-.15.53-.24.81-.27,1.43-.16,1.73,1,1.85,2.21.05.51.07,1.03.12,1.47.16-.39.35-.84.59-1.32,1.44-2.98,4.26-7.22,7.54-6.75.31.05.62.13.94.26,3.28,1.4,2.64,4.99,1.44,8,0,0,0,.02-.01.03-.06.14-.11.28-.17.41,0,0,0,0,0,0,0,0,0,0,0,0-.11.25-.21.49-.32.73-.39.86-.8,1.62-1.11,2.22,1.52-.16,2.8-2.18,4.52-1.01.84.58.86,1.36.63,2.16-.17.56-.46,1.13-.68,1.64h-22.38s-.03,0-.03,0c-.14-.11-.28-.22-.43-.35-2.74-2.35-6.39-7.86-3.52-11.08Z"/>
  <path class="cls-4" d="M245.07,195.52c.36-.36.72-.7,1.1-1.01.42-2.05.89-4.2,1.42-6.4.07-11.38-1.15-21.42-1.15-21.42-.2,1.11-.38,2.26-.53,3.43-.15,1.1-.27,2.22-.38,3.36-.73,7.57-.69,15.68-.45,22.04Z"/>
  <path class="cls-5" d="M252.16,182.25c1.47-7.03,3.35-17.48,3.35-17.48-.61,1.26-1.19,2.56-1.75,3.89-.47,1.12-3.59,10.02-3.66,10.24-.95,3.1-1.78,6.21-2.51,9.21-.53,2.21-1,4.35-1.42,6.4,1.09-.9,2.26-1.56,3.49-1.85.15-.57.3-1.14.44-1.71.24-.93.47-1.86.69-2.78.49-2.03.95-4.02,1.37-5.92Z"/>
  <path class="cls-4" d="M227.82,190.24c-3.68-8.35-7.87-15.29-7.87-15.29,1.36,5.48,3.81,11.56,6.2,16.79.34.14.66.31.95.51.55.38,1.01.87,1.41,1.42-.24-1.11-.47-2.26-.69-3.43Z"/>
  <path class="cls-5" d="M225.95,170.57c-.18,6.4.7,13.4,1.87,19.67.22,1.17.45,2.32.69,3.43,1.55,2.14,2.16,5.25,3.37,7.27,0-.18,0-.36.02-.54-.68-5.74-1.76-11.63-2.81-16.64-1.6-7.6-3.14-13.18-3.14-13.18Z"/>
  <path class="cls-4" d="M178.18,164.29c-3.68-8.35-7.87-15.29-7.87-15.29,1.36,5.48,3.81,11.56,6.2,16.79.34.14.66.31.95.51.55.38,1.01.87,1.41,1.42-.24-1.11-.47-2.26-.69-3.43Z"/>
  <path class="cls-5" d="M176.3,144.63c-.18,6.4.7,13.4,1.87,19.67.22,1.17.45,2.32.69,3.43,1.55,2.14,2.16,5.25,3.37,7.27,0-.18,0-.36.02-.54-.68-5.74-1.76-11.63-2.81-16.64-1.6-7.6-3.14-13.18-3.14-13.18Z"/>
  <path class="cls-4" d="M209.88,160.35c3.68-8.35,7.87-15.29,7.87-15.29-1.36,5.48-3.81,11.56-6.2,16.79-.34.14-.66.31-.95.51-.55.38-1.01.87-1.41,1.42.24-1.11.47-2.26.69-3.43Z"/>
  <path class="cls-5" d="M211.76,140.68c.18,6.4-.7,13.4-1.87,19.67-.22,1.17-.45,2.32-.69,3.43-1.55,2.14-2.16,5.25-3.37,7.27,0-.18,0-.36-.02-.54.68-5.74,1.76-11.63,2.81-16.64,1.6-7.6,3.14-13.18,3.14-13.18Z"/>
  <g>
    <path class="cls-6" d="M43.58,156.63c-.89-1.23-2.77-1.45-3.82-.56-1.22,1.06-1.47,3.45-2.17,4.88.02-1-.5-2.33-1.26-2.87-.18-.13-.37-.21-.58-.24-1.01-.14-1.23.88-1.31,1.95-.04.45-.05.91-.09,1.29-.11-.34-.25-.74-.42-1.16-1.02-2.62-3.02-6.35-5.35-5.94-.22.04-.44.11-.67.23-2.33,1.23-1.87,4.39-1.02,7.03,0,0,0,.02,0,.02.04.12.08.24.12.36,0,0,0,0,0,0,0,0,0,0,0,0,.07.22.15.43.23.64.28.75.57,1.43.79,1.95-1.08-.14-1.98-1.92-3.21-.88-.6.51-.61,1.2-.45,1.9.12.5.32,1,.48,1.44h15.88s.02,0,.02,0c.1-.09.2-.2.3-.31,1.94-2.07,4.53-6.92,2.5-9.75Z"/>
    <path class="cls-3" d="M56.52,148.49c-.27.27-.53.57-.78.88-2.01,2.52-3.56,6.26-4.29,8.53-.17-1.71-.01-4.35-1.31-4.96-.24-.11-.53-.16-.88-.11-1.55.21-2.72,2.52-2.87,4.4-.01.16-.02.32-.02.48-.86-1.78-1.29-4.51-2.39-6.39-.28-.48-.61-.91-1-1.25-.21-.18-.43-.33-.67-.45-1.68-.84-4.09-.36-5.3,1.32-1.42,1.97-1.4,4.57-.68,7.14.77.55,1.29,1.87,1.26,2.87.69-1.43.94-3.82,2.17-4.88,1.04-.9,2.93-.67,3.82.56,2.04,2.83-.55,7.68-2.5,9.75.1.11.21.21.31.31h.04s24.86,0,24.86,0c.6-1.68,1.65-3.87.05-5.23-1.91-1.63-3.34,1.16-5.02,1.38,1.66-3.87,5.45-12.92.2-15.68-.76-.4-1.51-.49-2.23-.35-.1.02-.2.04-.3.07-.87.25-1.7.83-2.47,1.62Z"/>
    <path class="cls-4" d="M63.56,151.69c-.25-.32-.51-.61-.78-.88-.3-1.8-.63-3.69-1.01-5.63-.05-10.01.82-18.84.82-18.84.14.98.27,1.99.38,3.02.1.97.19,1.95.27,2.95.52,6.66.49,13.79.32,19.38Z"/>
    <path class="cls-5" d="M58.53,140.02c-1.04-6.18-2.37-15.37-2.37-15.37.43,1.11.85,2.25,1.24,3.42.33.99,2.55,8.81,2.6,9,.67,2.73,1.27,5.46,1.78,8.1.38,1.94.71,3.83,1.01,5.63-.77-.79-1.6-1.38-2.47-1.62-.11-.5-.21-1.01-.31-1.51-.17-.82-.33-1.64-.49-2.44-.35-1.79-.68-3.54-.97-5.21Z"/>
    <path class="cls-4" d="M75.81,150.62c2.61-7.34,5.59-13.44,5.59-13.44-.97,4.82-2.7,10.17-4.4,14.76-.24.12-.47.27-.67.45-.39.34-.72.77-1,1.25.17-.98.33-1.99.49-3.02Z"/>
    <path class="cls-5" d="M77.14,133.32c.13,5.63-.5,11.79-1.33,17.3-.16,1.03-.32,2.04-.49,3.02-1.1,1.88-1.53,4.61-2.39,6.39,0-.15,0-.32-.02-.48.48-5.05,1.25-10.23,2-14.64,1.14-6.68,2.23-11.59,2.23-11.59Z"/>
    <path class="cls-3" d="M62.78,150.81c.27.27.53.57.78.88,2.01,2.52,3.56,6.26,4.29,8.53.17-1.71.01-4.35,1.31-4.96.24-.11.53-.16.88-.11,1.55.21,2.72,2.52,2.87,4.4.01.16.02.32.02.48.86-1.78,1.29-4.51,2.39-6.39.28-.48.61-.91,1-1.25.21-.18.43-.33.67-.45,1.68-.84,4.09-.36,5.3,1.32,1.42,1.97,1.4,4.57.68,7.14-.77.55-1.29,1.87-1.26,2.87-.69-1.43-.94-3.82-2.17-4.88-1.04-.9-2.93-.67-3.82.56-2.04,2.83.55,7.68,2.5,9.75-.1.11-.21.21-.31.31h-.04s-24.86,0-24.86,0c-.6-1.68-1.65-3.87-.05-5.23,1.91-1.63,3.34,1.16,5.02,1.38-1.66-3.87-5.45-12.92-.2-15.68.76-.4,1.51-.49,2.23-.35.1.02.2.04.3.07.87.25,1.7.83,2.47,1.62Z"/>
    <path class="cls-6" d="M75.72,158.94c.89-1.23,2.77-1.45,3.82-.56,1.22,1.06,1.47,3.45,2.17,4.88-.02-1,.5-2.33,1.26-2.87.18-.13.37-.21.58-.24,1.01-.14,1.23.88,1.31,1.95.04.45.05.91.09,1.29.11-.34.25-.74.42-1.16,1.02-2.62,3.02-6.35,5.35-5.94.22.04.44.11.67.23,2.33,1.23,1.87,4.39,1.02,7.03,0,0,0,.02,0,.02-.04.12-.08.24-.12.36,0,0,0,0,0,0,0,0,0,0,0,0-.07.22-.15.43-.23.64-.28.75-.57,1.43-.79,1.95,1.08-.14,1.98-1.92,3.21-.88.6.51.61,1.2.45,1.9-.12.5-.32,1-.48,1.44h-15.88s-.02,0-.02,0c-.1-.09-.2-.2-.3-.31-1.94-2.07-4.53-6.92-2.5-9.75Z"/>
    <path class="cls-4" d="M54.81,150.53c.25-.32.51-.61.78-.88.3-1.8.63-3.69,1.01-5.63.05-10.01-.82-18.84-.82-18.84-.14.98-.27,1.99-.38,3.02-.1.97-.19,1.95-.27,2.95-.52,6.66-.49,13.79-.32,19.38Z"/>
    <path class="cls-5" d="M59.84,138.87c1.04-6.18,2.37-15.37,2.37-15.37-.43,1.11-.85,2.25-1.24,3.42-.33.99-2.55,8.81-2.6,9-.67,2.73-1.27,5.46-1.78,8.1-.38,1.94-.71,3.83-1.01,5.63.77-.79,1.6-1.38,2.47-1.62.11-.5.21-1.01.31-1.51.17-.82.33-1.64.49-2.44.35-1.79.68-3.54.97-5.21Z"/>
    <path class="cls-4" d="M42.57,148.3c-2.61-7.34-5.59-13.44-5.59-13.44.97,4.82,2.7,10.17,4.4,14.76.24.12.47.27.67.45.39.34.72.77,1,1.25-.17-.98-.33-1.99-.49-3.02Z"/>
    <path class="cls-5" d="M41.24,131.01c-.13,5.63.5,11.79,1.33,17.3.16,1.03.32,2.04.49,3.02,1.1,1.88,1.53,4.61,2.39,6.39,0-.15,0-.32.02-.48-.48-5.05-1.25-10.23-2-14.64-1.14-6.68-2.23-11.59-2.23-11.59Z"/>
  </g>
  <g>
    <path class="cls-6" d="M353.9,201.64c1.1-1.23,3.44-1.46,4.73-.56,1.52,1.06,1.83,3.46,2.69,4.89-.03-1,.61-2.33,1.57-2.88.22-.13.46-.21.72-.24,1.26-.14,1.52.88,1.63,1.95.04.45.06.91.11,1.29.14-.34.31-.74.52-1.16,1.27-2.62,3.75-6.36,6.64-5.94.27.04.55.11.83.23,2.89,1.23,2.32,4.39,1.27,7.04,0,0,0,.02-.01.02-.05.12-.1.24-.15.36,0,0,0,0,0,0,0,0,0,0,0,0-.09.22-.19.43-.28.64-.35.75-.7,1.43-.98,1.96,1.33-.14,2.46-1.92,3.98-.88.74.51.76,1.2.56,1.9-.15.5-.4,1-.6,1.44h-19.7s-.03,0-.03,0c-.12-.09-.25-.2-.38-.31-2.41-2.07-5.62-6.92-3.1-9.76Z"/>
    <path class="cls-3" d="M337.84,193.49c.33.27.65.57.96.88,2.5,2.52,4.41,6.26,5.33,8.54.21-1.72.01-4.36,1.62-4.96.3-.11.65-.16,1.09-.12,1.92.21,3.38,2.52,3.55,4.4.02.16.03.32.02.48,1.07-1.78,1.6-4.52,2.97-6.4.35-.48.76-.91,1.24-1.25.25-.18.53-.33.83-.45,2.08-.85,5.07-.36,6.57,1.32,1.76,1.97,1.74,4.58.84,7.14-.95.55-1.6,1.87-1.57,2.88-.86-1.43-1.17-3.83-2.69-4.89-1.29-.9-3.63-.67-4.73.56-2.53,2.83.68,7.69,3.1,9.76-.13.11-.26.21-.39.31h-.05s-30.84,0-30.84,0c-.74-1.68-2.05-3.88-.07-5.23,2.37-1.63,4.14,1.17,6.23,1.38-2.05-3.87-6.76-12.93-.24-15.7.95-.4,1.88-.49,2.77-.35.12.02.24.04.37.07,1.08.25,2.11.83,3.07,1.63Z"/>
    <path class="cls-4" d="M329.11,196.69c.31-.32.63-.61.96-.88.37-1.8.79-3.7,1.25-5.64.07-10.02-1.01-18.86-1.01-18.86-.18.98-.33,1.99-.47,3.02-.13.97-.24,1.96-.34,2.96-.64,6.66-.61,13.81-.4,19.41Z"/>
    <path class="cls-5" d="M335.35,185.01c1.29-6.19,2.95-15.39,2.95-15.39-.54,1.11-1.05,2.25-1.54,3.42-.41.99-3.16,8.82-3.22,9.01-.84,2.73-1.57,5.47-2.21,8.11-.47,1.94-.88,3.83-1.25,5.64.96-.79,1.99-1.38,3.07-1.63.13-.5.26-1.01.39-1.51.21-.82.41-1.64.61-2.45.44-1.79.84-3.54,1.21-5.22Z"/>
    <path class="cls-4" d="M313.92,195.61c-3.24-7.35-6.93-13.46-6.93-13.46,1.2,4.82,3.35,10.18,5.46,14.78.3.12.58.27.83.45.49.34.89.77,1.24,1.25-.21-.98-.41-1.99-.61-3.02Z"/>
    <path class="cls-5" d="M312.27,178.3c-.16,5.63.62,11.8,1.65,17.31.19,1.03.4,2.04.61,3.02,1.37,1.88,1.9,4.62,2.97,6.4,0-.15,0-.32.02-.48-.6-5.06-1.55-10.24-2.47-14.65-1.41-6.69-2.77-11.6-2.77-11.6Z"/>
    <path class="cls-3" d="M330.07,195.8c-.33.27-.65.57-.96.88-2.5,2.52-4.41,6.26-5.33,8.54-.21-1.72-.01-4.36-1.62-4.96-.3-.11-.65-.16-1.09-.12-1.92.21-3.38,2.52-3.55,4.4-.02.16-.03.32-.02.48-1.07-1.78-1.6-4.52-2.97-6.4-.35-.48-.76-.91-1.24-1.25-.25-.18-.53-.33-.83-.45-2.08-.85-5.07-.36-6.57,1.32-1.76,1.97-1.74,4.58-.84,7.14.95.55,1.6,1.87,1.57,2.88.86-1.43,1.17-3.83,2.69-4.89,1.29-.9,3.63-.67,4.73.56,2.53,2.83-.68,7.69-3.1,9.76.13.11.26.21.39.31h.05s30.84,0,30.84,0c.74-1.68,2.05-3.88.07-5.23-2.37-1.63-4.14,1.17-6.23,1.38,2.05-3.87,6.76-12.93.24-15.7-.95-.4-1.88-.49-2.77-.35-.12.02-.24.04-.37.07-1.08.25-2.11.83-3.07,1.63Z"/>
    <path class="cls-6" d="M314.02,203.95c-1.1-1.23-3.44-1.46-4.73-.56-1.52,1.06-1.83,3.46-2.69,4.89.03-1-.61-2.33-1.57-2.88-.22-.13-.46-.21-.72-.24-1.26-.14-1.52.88-1.63,1.95-.04.45-.06.91-.11,1.29-.14-.34-.31-.74-.52-1.16-1.27-2.62-3.75-6.36-6.64-5.94-.27.04-.55.11-.83.23-2.89,1.23-2.32,4.39-1.27,7.04,0,0,0,.02.01.02.05.12.1.24.15.36,0,0,0,0,0,0,0,0,0,0,0,0,.09.22.19.43.28.64.35.75.7,1.43.98,1.96-1.33-.14-2.46-1.92-3.98-.88-.74.51-.76,1.2-.56,1.9.15.5.4,1,.6,1.44h19.73c.12-.1.25-.2.38-.31,2.41-2.07,5.62-6.92,3.1-9.76Z"/>
    <path class="cls-4" d="M339.96,195.53c-.31-.32-.63-.61-.96-.88-.37-1.8-.79-3.7-1.25-5.64-.07-10.02,1.01-18.86,1.01-18.86.18.98.33,1.99.47,3.02.13.97.24,1.96.34,2.96.64,6.66.61,13.81.4,19.41Z"/>
    <path class="cls-5" d="M333.72,183.85c-1.29-6.19-2.95-15.39-2.95-15.39.54,1.11,1.05,2.25,1.54,3.42.41.99,3.16,8.82,3.22,9.01.84,2.73,1.57,5.47,2.21,8.11.47,1.94.88,3.83,1.25,5.64-.96-.79-1.99-1.38-3.07-1.63-.13-.5-.26-1.01-.39-1.51-.21-.82-.41-1.64-.61-2.45-.44-1.79-.84-3.54-1.21-5.22Z"/>
    <path class="cls-4" d="M355.15,193.3c3.24-7.35,6.93-13.46,6.93-13.46-1.2,4.82-3.35,10.18-5.46,14.78-.3.12-.58.27-.83.45-.49.34-.89.77-1.24,1.25.21-.98.41-1.99.61-3.02Z"/>
    <path class="cls-5" d="M356.8,175.98c.16,5.63-.62,11.8-1.65,17.31-.19,1.03-.4,2.04-.61,3.02-1.37,1.88-1.9,4.62-2.97,6.4,0-.15,0-.32-.02-.48.6-5.06,1.55-10.24,2.47-14.65,1.41-6.69,2.77-11.6,2.77-11.6Z"/>
  </g>
  <path class="cls-6" d="M152.67,178.93c1.1-1.23,3.44-1.46,4.73-.56,1.52,1.06,1.83,3.46,2.69,4.89-.03-1,.61-2.33,1.57-2.88.22-.13.46-.21.72-.24,1.26-.14,1.52.88,1.63,1.95.04.45.06.91.11,1.29.14-.34.31-.74.52-1.16,1.27-2.62,3.75-6.36,6.64-5.94.27.04.55.11.83.23,2.89,1.23,2.32,4.39,1.27,7.04,0,0,0,.02-.01.02-.05.12-.1.24-.15.36,0,0,0,0,0,0,0,0,0,0,0,0-.09.22-.19.43-.28.64-.35.75-.7,1.43-.98,1.96,1.33-.14,2.46-1.92,3.98-.88.74.51.76,1.2.56,1.9-.15.5-.4,1-.6,1.44h-19.7s-.03,0-.03,0c-.12-.09-.25-.2-.38-.31-2.41-2.07-5.62-6.92-3.1-9.76Z"/>
  <path class="cls-4" d="M343.88,208.87c.31-.32.63-.61.96-.88.37-1.8.79-3.7,1.25-5.64.07-10.02-1.01-18.86-1.01-18.86-.18.98-.33,1.99-.47,3.02-.13.97-.24,1.96-.34,2.96-.64,6.66-.61,13.81-.4,19.41Z"/>
  <path class="cls-4" d="M64.69,175.8c-3.24-7.35-6.93-13.46-6.93-13.46,1.2,4.82,3.35,10.18,5.46,14.78.3.12.58.27.83.45.49.34.89.77,1.24,1.25-.21-.98-.41-1.99-.61-3.02Z"/>
  <path class="cls-6" d="M145.8,181.93c1.1-1.23,3.44-1.46,4.73-.56,1.52,1.06,1.83,3.46,2.69,4.89-.03-1,.61-2.33,1.57-2.88.22-.13.46-.21.72-.24,1.26-.14,1.52.88,1.63,1.95.04.45.06.91.11,1.29.14-.34.31-.74.52-1.16,1.27-2.62,3.75-6.36,6.64-5.94.27.04.55.11.83.23,2.89,1.23,2.32,4.39,1.27,7.04,0,0,0,.02-.01.02-.05.12-.1.24-.15.36,0,0,0,0,0,0,0,0,0,0,0,0-.09.22-.19.43-.28.64-.35.75-.7,1.43-.98,1.96,1.33-.14,2.46-1.92,3.98-.88.74.51.76,1.2.56,1.9-.15.5-.4,1-.6,1.44h-19.7s-.03,0-.03,0c-.12-.09-.25-.2-.38-.31-2.41-2.07-5.62-6.92-3.1-9.76Z"/>
  <path class="cls-5" d="M348.5,196.03c-1.29-6.19-2.95-15.39-2.95-15.39.54,1.11,1.05,2.25,1.54,3.42.41.99,3.16,8.82,3.22,9.01.84,2.73,1.57,5.47,2.21,8.11.47,1.94.88,3.83,1.25,5.64-.96-.79-1.99-1.38-3.07-1.63-.13-.5-.26-1.01-.39-1.51-.21-.82-.41-1.64-.61-2.45-.44-1.79-.84-3.54-1.21-5.22Z"/>
  <path class="cls-4" d="M178.93,184.48c3.24-7.35,6.93-13.46,6.93-13.46-1.2,4.82-3.35,10.18-5.46,14.78-.3.12-.58.27-.83.45-.49.34-.89.77-1.24,1.25.21-.98.41-1.99.61-3.02Z"/>
  <path class="cls-5" d="M177.58,165.17c.16,5.63-.62,11.8-1.65,17.31-.19,1.03-.4,2.04-.61,3.02-1.37,1.88-1.9,4.62-2.97,6.4,0-.15,0-.32-.02-.48.6-5.06,1.55-10.24,2.47-14.65,1.41-6.69,2.77-11.6,2.77-11.6Z"/>
  <g>
    <path class="cls-6" d="M184.79,184.93c-1.1-1.23-3.44-1.46-4.73-.56-1.52,1.06-1.83,3.46-2.69,4.89.03-1-.61-2.33-1.57-2.88-.22-.13-.46-.21-.72-.24-1.26-.14-1.52.88-1.63,1.95-.04.45-.06.91-.11,1.29-.14-.34-.31-.74-.52-1.16-1.27-2.62-3.75-6.36-6.64-5.94-.27.04-.55.11-.83.23-2.89,1.23-2.32,4.39-1.27,7.04,0,0,0,.02.01.02.05.12.1.24.15.36,0,0,0,0,0,0,0,0,0,0,0,0,.09.22.19.43.28.64.35.75.7,1.43.98,1.96-1.33-.14-2.46-1.92-3.98-.88-.74.51-.76,1.2-.56,1.9.15.5.4,1,.6,1.44h19.7s.03,0,.03,0c.12-.09.25-.2.38-.31,2.41-2.07,5.62-6.92,3.1-9.76Z"/>
    <path class="cls-3" d="M200.85,176.67c-.33.27-.65.57-.96.88-2.5,2.52-4.41,6.26-5.33,8.54-.21-1.72-.01-4.36-1.62-4.96-.3-.11-.65-.16-1.09-.12-1.92.21-3.38,2.52-3.55,4.4-.02.16-.03.32-.02.48-1.07-1.78-1.6-4.52-2.97-6.4-.35-.48-.76-.91-1.24-1.25-.25-.18-.53-.33-.83-.45-2.08-.85-5.07-.36-6.57,1.32-1.76,1.97-1.74,4.58-.84,7.14.95.55,1.6,1.87,1.57,2.88.86-1.43,1.17-3.83,2.69-4.89,1.29-.9,3.63-.67,4.73.56,2.53,2.83-.68,7.69-3.1,9.76.13.11.26.21.39.31h.05s30.84,0,30.84,0c.74-1.68,2.05-3.88.07-5.23-2.37-1.63-4.14,1.17-6.23,1.38,2.05-3.87,6.76-12.93.24-15.7-.95-.4-1.88-.49-2.77-.35-.12.02-.24.04-.37.07-1.08.25-2.11.83-3.07,1.63Z"/>
    <path class="cls-4" d="M209.58,179.87c-.31-.32-.63-.61-.96-.88-.37-1.8-.79-3.7-1.25-5.64-.07-10.02,1.01-18.86,1.01-18.86.18.98.33,1.99.47,3.02.13.97.24,1.96.34,2.96.64,6.66.61,13.81.4,19.41Z"/>
    <path class="cls-5" d="M203.34,168.19c-1.29-6.19-2.95-15.39-2.95-15.39.54,1.11,1.05,2.25,1.54,3.42.41.99,3.16,8.82,3.22,9.01.84,2.73,1.57,5.47,2.21,8.11.47,1.94.88,3.83,1.25,5.64-.96-.79-1.99-1.38-3.07-1.63-.13-.5-.26-1.01-.39-1.51-.21-.82-.41-1.64-.61-2.45-.44-1.79-.84-3.54-1.21-5.22Z"/>
    <path class="cls-4" d="M224.77,178.8c3.24-7.35,6.93-13.46,6.93-13.46-1.2,4.82-3.35,10.18-5.46,14.78-.3.12-.58.27-.83.45-.49.34-.89.77-1.24,1.25.21-.98.41-1.99.61-3.02Z"/>
    <path class="cls-5" d="M226.42,161.48c.16,5.63-.62,11.8-1.65,17.31-.19,1.03-.4,2.04-.61,3.02-1.37,1.88-1.9,4.62-2.97,6.4,0-.15,0-.32-.02-.48.6-5.06,1.55-10.24,2.47-14.65,1.41-6.69,2.77-11.6,2.77-11.6Z"/>
    <path class="cls-3" d="M208.61,178.99c.33.27.65.57.96.88,2.5,2.52,4.41,6.26,5.33,8.54.21-1.72.01-4.36,1.62-4.96.3-.11.65-.16,1.09-.12,1.92.21,3.38,2.52,3.55,4.4.02.16.03.32.02.48,1.07-1.78,1.6-4.52,2.97-6.4.35-.48.76-.91,1.24-1.25.25-.18.53-.33.83-.45,2.08-.85,5.07-.36,6.57,1.32,1.76,1.97,1.74,4.58.84,7.14-.95.55-1.6,1.87-1.57,2.88-.86-1.43-1.17-3.83-2.69-4.89-1.29-.9-3.63-.67-4.73.56-2.53,2.83.68,7.69,3.1,9.76-.13.11-.26.21-.39.31h-.05s-30.84,0-30.84,0c-.74-1.68-2.05-3.88-.07-5.23,2.37-1.63,4.14,1.17,6.23,1.38-2.05-3.87-6.76-12.93-.24-15.7.95-.4,1.88-.49,2.77-.35.12.02.24.04.37.07,1.08.25,2.11.83,3.07,1.63Z"/>
    <path class="cls-6" d="M224.67,187.13c1.1-1.23,3.44-1.46,4.73-.56,1.52,1.06,1.83,3.46,2.69,4.89-.03-1,.61-2.33,1.57-2.88.22-.13.46-.21.72-.24,1.26-.14,1.52.88,1.63,1.95.04.45.06.91.11,1.29.14-.34.31-.74.52-1.16,1.27-2.62,3.75-6.36,6.64-5.94.27.04.55.11.83.23,2.89,1.23,2.32,4.39,1.27,7.04,0,0,0,.02-.01.02-.05.12-.1.24-.15.36,0,0,0,0,0,0,0,0,0,0,0,0-.09.22-.19.43-.28.64-.35.75-.7,1.43-.98,1.96,1.33-.14,2.46-1.92,3.98-.88.74.51.76,1.2.56,1.9-.15.5-.4,1-.6,1.44h-19.7s-.03,0-.03,0c-.12-.09-.25-.2-.38-.31-2.41-2.07-5.62-6.92-3.1-9.76Z"/>
    <path class="cls-4" d="M198.72,178.71c.31-.32.63-.61.96-.88.37-1.8.79-3.7,1.25-5.64.07-10.02-1.01-18.86-1.01-18.86-.18.98-.33,1.99-.47,3.02-.13.97-.24,1.96-.34,2.96-.64,6.66-.61,13.81-.4,19.41Z"/>
    <path class="cls-5" d="M204.96,167.03c1.29-6.19,2.95-15.39,2.95-15.39-.54,1.11-1.05,2.25-1.54,3.42-.41.99-3.16,8.82-3.22,9.01-.84,2.73-1.57,5.47-2.21,8.11-.47,1.94-.88,3.83-1.25,5.64.96-.79,1.99-1.38,3.07-1.63.13-.5.26-1.01.39-1.51.21-.82.41-1.64.61-2.45.44-1.79.84-3.54,1.21-5.22Z"/>
    <path class="cls-4" d="M183.53,176.48c-3.24-7.35-6.93-13.46-6.93-13.46,1.2,4.82,3.35,10.18,5.46,14.78.3.12.58.27.83.45.49.34.89.77,1.24,1.25-.21-.98-.41-1.99-.61-3.02Z"/>
    <path class="cls-5" d="M181.88,159.17c-.16,5.63.62,11.8,1.65,17.31.19,1.03.4,2.04.61,3.02,1.37,1.88,1.9,4.62,2.97,6.4,0-.15,0-.32.02-.48-.6-5.06-1.55-10.24-2.47-14.65-1.41-6.69-2.77-11.6-2.77-11.6Z"/>
  </g>
  <g>
    <path class="cls-6" d="M124.07,166.74c1.1-1.23,3.44-1.46,4.73-.56,1.52,1.06,1.83,3.46,2.69,4.89-.03-1,.61-2.33,1.57-2.88.22-.13.46-.21.72-.24,1.26-.14,1.52.88,1.63,1.95.04.45.06.91.11,1.29.14-.34.31-.74.52-1.16,1.27-2.62,3.75-6.36,6.64-5.94.27.04.55.11.83.23,2.89,1.23,2.32,4.39,1.27,7.04,0,0,0,.02-.01.02-.05.12-.1.24-.15.36,0,0,0,0,0,0,0,0,0,0,0,0-.09.22-.19.43-.28.64-.35.75-.7,1.43-.98,1.96,1.33-.14,2.46-1.92,3.98-.88.74.51.76,1.2.56,1.9-.15.5-.4,1-.6,1.44h-19.7s-.03,0-.03,0c-.12-.09-.25-.2-.38-.31-2.41-2.07-5.62-6.92-3.1-9.76Z"/>
    <path class="cls-3" d="M108.02,158.6c.33.27.65.57.96.88,2.5,2.52,4.41,6.26,5.33,8.54.21-1.72.01-4.36,1.62-4.96.3-.11.65-.16,1.09-.12,1.92.21,3.38,2.52,3.55,4.4.02.16.03.32.02.48,1.07-1.78,1.6-4.52,2.97-6.4.35-.48.76-.91,1.24-1.25.25-.18.53-.33.83-.45,2.08-.85,5.07-.36,6.57,1.32,1.76,1.97,1.74,4.58.84,7.14-.95.55-1.6,1.87-1.57,2.88-.86-1.43-1.17-3.83-2.69-4.89-1.29-.9-3.63-.67-4.73.56-2.53,2.83.68,7.69,3.1,9.76-.13.11-.26.21-.39.31h-.05s-30.84,0-30.84,0c-.74-1.68-2.05-3.88-.07-5.23,2.37-1.63,4.14,1.17,6.23,1.38-2.05-3.87-6.76-12.93-.24-15.7.95-.4,1.88-.49,2.77-.35.12.02.24.04.37.07,1.08.25,2.11.83,3.07,1.63Z"/>
    <path class="cls-4" d="M99.29,161.8c.31-.32.63-.61.96-.88.37-1.8.79-3.7,1.25-5.64.07-10.02-1.01-18.86-1.01-18.86-.18.98-.33,1.99-.47,3.02-.13.97-.24,1.96-.34,2.96-.64,6.66-.61,13.81-.4,19.41Z"/>
    <path class="cls-5" d="M105.53,150.12c1.29-6.19,2.95-15.39,2.95-15.39-.54,1.11-1.05,2.25-1.54,3.42-.41.99-3.16,8.82-3.22,9.01-.84,2.73-1.57,5.47-2.21,8.11-.47,1.94-.88,3.83-1.25,5.64.96-.79,1.99-1.38,3.07-1.63.13-.5.26-1.01.39-1.51.21-.82.41-1.64.61-2.45.44-1.79.84-3.54,1.21-5.22Z"/>
    <path class="cls-4" d="M84.1,160.72c-3.24-7.35-6.93-13.46-6.93-13.46,1.2,4.82,3.35,10.18,5.46,14.78.3.12.58.27.83.45.49.34.89.77,1.24,1.25-.21-.98-.41-1.99-.61-3.02Z"/>
    <path class="cls-5" d="M82.45,143.41c-.16,5.63.62,11.8,1.65,17.31.19,1.03.4,2.04.61,3.02,1.37,1.88,1.9,4.62,2.97,6.4,0-.15,0-.32.02-.48-.6-5.06-1.55-10.24-2.47-14.65-1.41-6.69-2.77-11.6-2.77-11.6Z"/>
    <path class="cls-3" d="M100.25,160.91c-.33.27-.65.57-.96.88-2.5,2.52-4.41,6.26-5.33,8.54-.21-1.72-.01-4.36-1.62-4.96-.3-.11-.65-.16-1.09-.12-1.92.21-3.38,2.52-3.55,4.4-.02.16-.03.32-.02.48-1.07-1.78-1.6-4.52-2.97-6.4-.35-.48-.76-.91-1.24-1.25-.25-.18-.53-.33-.83-.45-2.08-.85-5.07-.36-6.57,1.32-1.76,1.97-1.74,4.58-.84,7.14.95.55,1.6,1.87,1.57,2.88.86-1.43,1.17-3.83,2.69-4.89,1.29-.9,3.63-.67,4.73.56,2.53,2.83-.68,7.69-3.1,9.76.13.11.26.21.39.31h.05s30.84,0,30.84,0c.74-1.68,2.05-3.88.07-5.23-2.37-1.63-4.14,1.17-6.23,1.38,2.05-3.87,6.76-12.93.24-15.7-.95-.4-1.88-.49-2.77-.35-.12.02-.24.04-.37.07-1.08.25-2.11.83-3.07,1.63Z"/>
    <path class="cls-6" d="M84.2,169.06c-1.1-1.23-3.44-1.46-4.73-.56-1.52,1.06-1.83,3.46-2.69,4.89.03-1-.61-2.33-1.57-2.88-.22-.13-.46-.21-.72-.24-1.26-.14-1.52.88-1.63,1.95-.04.45-.06.91-.11,1.29-.14-.34-.31-.74-.52-1.16-1.27-2.62-3.75-6.36-6.64-5.94-.27.04-.55.11-.83.23-2.89,1.23-2.32,4.39-1.27,7.04,0,0,0,.02.01.02.05.12.1.24.15.36,0,0,0,0,0,0,0,0,0,0,0,0,.09.22.19.43.28.64.35.75.7,1.43.98,1.96-1.33-.14-2.46-1.92-3.98-.88-.74.51-.76,1.2-.56,1.9.15.5.4,1,.6,1.44h19.73c.12-.1.25-.2.38-.31,2.41-2.07,5.62-6.92,3.1-9.76Z"/>
    <path class="cls-4" d="M110.14,160.64c-.31-.32-.63-.61-.96-.88-.37-1.8-.79-3.7-1.25-5.64-.07-10.02,1.01-18.86,1.01-18.86.18.98.33,1.99.47,3.02.13.97.24,1.96.34,2.96.64,6.66.61,13.81.4,19.41Z"/>
    <path class="cls-5" d="M103.9,148.96c-1.29-6.19-2.95-15.39-2.95-15.39.54,1.11,1.05,2.25,1.54,3.42.41.99,3.16,8.82,3.22,9.01.84,2.73,1.57,5.47,2.21,8.11.47,1.94.88,3.83,1.25,5.64-.96-.79-1.99-1.38-3.07-1.63-.13-.5-.26-1.01-.39-1.51-.21-.82-.41-1.64-.61-2.45-.44-1.79-.84-3.54-1.21-5.22Z"/>
    <path class="cls-4" d="M125.33,158.41c3.24-7.35,6.93-13.46,6.93-13.46-1.2,4.82-3.35,10.18-5.46,14.78-.3.12-.58.27-.83.45-.49.34-.89.77-1.24,1.25.21-.98.41-1.99.61-3.02Z"/>
    <path class="cls-5" d="M126.98,141.09c.16,5.63-.62,11.8-1.65,17.31-.19,1.03-.4,2.04-.61,3.02-1.37,1.88-1.9,4.62-2.97,6.4,0-.15,0-.32-.02-.48.6-5.06,1.55-10.24,2.47-14.65,1.41-6.69,2.77-11.6,2.77-11.6Z"/>
  </g>
  <path class="cls-5" d="M102.12,177.19c1.29-6.19,2.95-15.39,2.95-15.39-.54,1.11-1.05,2.25-1.54,3.42-.41.99-3.16,8.82-3.22,9.01-.84,2.73-1.57,5.47-2.21,8.11-.47,1.94-.88,3.83-1.25,5.64.96-.79,1.99-1.38,3.07-1.63.13-.5.26-1.01.39-1.51.21-.82.41-1.64.61-2.45.44-1.79.84-3.54,1.21-5.22Z"/>
  <g>
    <path class="cls-6" d="M158.67,175.82c1.1-1.23,3.44-1.46,4.73-.56,1.52,1.06,1.83,3.46,2.69,4.89-.03-1,.61-2.33,1.57-2.88.22-.13.46-.21.72-.24,1.26-.14,1.52.88,1.63,1.95.04.45.06.91.11,1.29.14-.34.31-.74.52-1.16,1.27-2.62,3.75-6.36,6.64-5.94.27.04.55.11.83.23,2.89,1.23,2.32,4.39,1.27,7.04,0,0,0,.02-.01.02-.05.12-.1.24-.15.36,0,0,0,0,0,0,0,0,0,0,0,0-.09.22-.19.43-.28.64-.35.75-.7,1.43-.98,1.96,1.33-.14,2.46-1.92,3.98-.88.74.51.76,1.2.56,1.9-.15.5-.4,1-.6,1.44h-19.7s-.03,0-.03,0c-.12-.09-.25-.2-.38-.31-2.41-2.07-5.62-6.92-3.1-9.76Z"/>
    <path class="cls-3" d="M142.61,167.67c.33.27.65.57.96.88,2.5,2.52,4.41,6.26,5.33,8.54.21-1.72.01-4.36,1.62-4.96.3-.11.65-.16,1.09-.12,1.92.21,3.38,2.52,3.55,4.4.02.16.03.32.02.48,1.07-1.78,1.6-4.52,2.97-6.4.35-.48.76-.91,1.24-1.25.25-.18.53-.33.83-.45,2.08-.85,5.07-.36,6.57,1.32,1.76,1.97,1.74,4.58.84,7.14-.95.55-1.6,1.87-1.57,2.88-.86-1.43-1.17-3.83-2.69-4.89-1.29-.9-3.63-.67-4.73.56-2.53,2.83.68,7.69,3.1,9.76-.13.11-.26.21-.39.31h-.05s-30.84,0-30.84,0c-.74-1.68-2.05-3.88-.07-5.23,2.37-1.63,4.14,1.17,6.23,1.38-2.05-3.87-6.76-12.93-.24-15.7.95-.4,1.88-.49,2.77-.35.12.02.24.04.37.07,1.08.25,2.11.83,3.07,1.63Z"/>
    <path class="cls-4" d="M133.88,170.87c.31-.32.63-.61.96-.88.37-1.8.79-3.7,1.25-5.64.07-10.02-1.01-18.86-1.01-18.86-.18.98-.33,1.99-.47,3.02-.13.97-.24,1.96-.34,2.96-.64,6.66-.61,13.81-.4,19.41Z"/>
    <path class="cls-5" d="M140.12,159.19c1.29-6.19,2.95-15.39,2.95-15.39-.54,1.11-1.05,2.25-1.54,3.42-.41.99-3.16,8.82-3.22,9.01-.84,2.73-1.57,5.47-2.21,8.11-.47,1.94-.88,3.83-1.25,5.64.96-.79,1.99-1.38,3.07-1.63.13-.5.26-1.01.39-1.51.21-.82.41-1.64.61-2.45.44-1.79.84-3.54,1.21-5.22Z"/>
    <path class="cls-4" d="M118.69,169.8c-3.24-7.35-6.93-13.46-6.93-13.46,1.2,4.82,3.35,10.18,5.46,14.78.3.12.58.27.83.45.49.34.89.77,1.24,1.25-.21-.98-.41-1.99-.61-3.02Z"/>
    <path class="cls-5" d="M117.04,152.48c-.16,5.63.62,11.8,1.65,17.31.19,1.03.4,2.04.61,3.02,1.37,1.88,1.9,4.62,2.97,6.4,0-.15,0-.32.02-.48-.6-5.06-1.55-10.24-2.47-14.65-1.41-6.69-2.77-11.6-2.77-11.6Z"/>
    <path class="cls-3" d="M134.85,169.99c-.33.27-.65.57-.96.88-2.5,2.52-4.41,6.26-5.33,8.54-.21-1.72-.01-4.36-1.62-4.96-.3-.11-.65-.16-1.09-.12-1.92.21-3.38,2.52-3.55,4.4-.02.16-.03.32-.02.48-1.07-1.78-1.6-4.52-2.97-6.4-.35-.48-.76-.91-1.24-1.25-.25-.18-.53-.33-.83-.45-2.08-.85-5.07-.36-6.57,1.32-1.76,1.97-1.74,4.58-.84,7.14.95.55,1.6,1.87,1.57,2.88.86-1.43,1.17-3.83,2.69-4.89,1.29-.9,3.63-.67,4.73.56,2.53,2.83-.68,7.69-3.1,9.76.13.11.26.21.39.31h.05s30.84,0,30.84,0c.74-1.68,2.05-3.88.07-5.23-2.37-1.63-4.14,1.17-6.23,1.38,2.05-3.87,6.76-12.93.24-15.7-.95-.4-1.88-.49-2.77-.35-.12.02-.24.04-.37.07-1.08.25-2.11.83-3.07,1.63Z"/>
    <path class="cls-6" d="M118.79,178.13c-1.1-1.23-3.44-1.46-4.73-.56-1.52,1.06-1.83,3.46-2.69,4.89.03-1-.61-2.33-1.57-2.88-.22-.13-.46-.21-.72-.24-1.26-.14-1.52.88-1.63,1.95-.04.45-.06.91-.11,1.29-.14-.34-.31-.74-.52-1.16-1.27-2.62-3.75-6.36-6.64-5.94-.27.04-.55.11-.83.23-2.89,1.23-2.32,4.39-1.27,7.04,0,0,0,.02.01.02.05.12.1.24.15.36,0,0,0,0,0,0,0,0,0,0,0,0,.09.22.19.43.28.64.35.75.7,1.43.98,1.96-1.33-.14-2.46-1.92-3.98-.88-.74.51-.76,1.2-.56,1.9.15.5.4,1,.6,1.44h19.73c.12-.1.25-.2.38-.31,2.41-2.07,5.62-6.92,3.1-9.76Z"/>
    <path class="cls-4" d="M144.74,169.71c-.31-.32-.63-.61-.96-.88-.37-1.8-.79-3.7-1.25-5.64-.07-10.02,1.01-18.86,1.01-18.86.18.98.33,1.99.47,3.02.13.97.24,1.96.34,2.96.64,6.66.61,13.81.4,19.41Z"/>
    <path class="cls-5" d="M138.5,158.03c-1.29-6.19-2.95-15.39-2.95-15.39.54,1.11,1.05,2.25,1.54,3.42.41.99,3.16,8.82,3.22,9.01.84,2.73,1.57,5.47,2.21,8.11.47,1.94.88,3.83,1.25,5.64-.96-.79-1.99-1.38-3.07-1.63-.13-.5-.26-1.01-.39-1.51-.21-.82-.41-1.64-.61-2.45-.44-1.79-.84-3.54-1.21-5.22Z"/>
    <path class="cls-4" d="M159.93,167.48c3.24-7.35,6.93-13.46,6.93-13.46-1.2,4.82-3.35,10.18-5.46,14.78-.3.12-.58.27-.83.45-.49.34-.89.77-1.24,1.25.21-.98.41-1.99.61-3.02Z"/>
    <path class="cls-5" d="M161.58,150.17c.16,5.63-.62,11.8-1.65,17.31-.19,1.03-.4,2.04-.61,3.02-1.37,1.88-1.9,4.62-2.97,6.4,0-.15,0-.32-.02-.48.6-5.06,1.55-10.24,2.47-14.65,1.41-6.69,2.77-11.6,2.77-11.6Z"/>
  </g>
</svg>