<?xml version="1.0" encoding="UTF-8"?>
<svg id="Layer_1" data-name="Layer 1" xmlns="http://www.w3.org/2000/svg" viewBox="0 0 400 768">
  <defs>
    <style>
      .cls-1 {
        fill: #fab800;
      }

      .cls-2 {
        fill: #c99008;
      }

      .cls-3 {
        fill: #f9b61d;
      }

      .cls-4 {
        fill: #fff;
      }

      .cls-5 {
        fill: #009cc5;
      }

      .cls-6 {
        fill: #f6f4f2;
      }

      .cls-7 {
        fill: #fdfaf6;
      }

      .cls-8 {
        fill: #67731d;
      }

      .cls-9 {
        fill: #616160;
      }

      .cls-10 {
        fill: #7e921c;
      }

      .cls-11 {
        fill: #4e81af;
      }

      .cls-12 {
        fill: #778a1a;
      }

      .cls-13 {
        fill: #fdd486;
      }

      .cls-14 {
        fill: #ebe6e3;
      }

      .cls-15 {
        fill: #dedad7;
      }

      .cls-16 {
        fill: #91a80d;
      }

      .cls-17 {
        fill: #6a7c17;
      }

      .cls-18 {
        fill: #313659;
      }

      .cls-19 {
        fill: #899f1f;
      }

      .cls-20 {
        fill: #d4e5eb;
      }

      .cls-21 {
        fill: #c7e0ea;
      }

      .cls-22 {
        fill: #fbc557;
      }
    </style>
  </defs>
  <path class="cls-11" d="M289.27,176.94c-.34-.38-.66-.77-.98-1.16l.74,1.51c.08-.11.15-.23.23-.34Z"/>
  <path class="cls-8" d="M365.12,326.82c.02.24.03.48.04.72-.01-.24-.02-.48-.04-.72Z"/>
  <path class="cls-8" d="M364.82,324.4c.03.14.04.29.06.43-.02-.14-.04-.29-.06-.43Z"/>
  <path class="cls-8" d="M361.6,316.88c.17.24.34.48.5.73-.16-.25-.32-.49-.5-.73Z"/>
  <path class="cls-8" d="M360.05,314.97c.21.23.41.47.62.72-.2-.24-.4-.48-.62-.72Z"/>
  <path class="cls-8" d="M364.71,332.44c-.05.22-.1.45-.15.67.06-.23.11-.45.15-.67Z"/>
  <path class="cls-8" d="M363.06,319.3c.11.21.2.43.3.65-.1-.22-.2-.44-.3-.65Z"/>
  <path class="cls-8" d="M364.02,321.55c.09.25.18.5.25.76-.08-.25-.16-.51-.25-.76Z"/>
  <path class="cls-8" d="M365.11,329.92c0,.07-.02.14-.03.2,0-.07.02-.14.03-.2Z"/>
  <path class="cls-8" d="M358.04,313.09c.25.2.49.4.73.62-.24-.21-.48-.41-.73-.62Z"/>
  <path class="cls-8" d="M356.06,311.68c.29.18.56.37.84.56-.28-.19-.55-.39-.84-.56Z"/>
  <path class="cls-10" d="M286.12,68.51c.23-.26.45-.52.68-.78-.23.26-.45.52-.68.78Z"/>
  <path class="cls-10" d="M276.91,86.24c.04-.16.09-.32.13-.47-.04.16-.09.31-.13.47Z"/>
  <path class="cls-10" d="M278.88,110.96c-.02-.05-.04-.1-.06-.16.02.05.04.11.06.16Z"/>
  <path class="cls-10" d="M275.85,98.79c-.02-.29-.04-.57-.06-.86.02.29.04.57.06.86Z"/>
  <path class="cls-10" d="M277.8,108.14c-.1-.27-.18-.55-.27-.82.09.27.17.55.27.82Z"/>
  <path class="cls-10" d="M276.9,105.11c-.06-.23-.13-.46-.18-.68.05.23.12.46.18.68Z"/>
  <path class="cls-10" d="M275.73,95.61c0-.16,0-.32,0-.48,0,.16,0,.32,0,.48Z"/>
  <path class="cls-10" d="M276.23,89.65c.04-.28.09-.56.14-.84-.05.28-.09.56-.14.84Z"/>
  <path class="cls-10" d="M275.88,92.44c.02-.27.06-.54.09-.82-.03.27-.06.54-.09.82Z"/>
  <path class="cls-10" d="M276.18,101.64c-.03-.21-.05-.42-.08-.63.03.21.05.42.08.63Z"/>
  <path class="cls-10" d="M282.39,117.38c-.16-.24-.3-.48-.45-.71.15.24.3.48.45.71Z"/>
  <path class="cls-10" d="M280.66,114.52c-.14-.26-.29-.51-.43-.77.14.26.28.52.43.77Z"/>
  <path class="cls-10" d="M284.69,120.54c-.12-.15-.24-.29-.36-.44.11.15.24.29.36.44Z"/>
  <path class="cls-10" d="M297.15,132c-.33-.23-.65-.46-.97-.69.32.23.64.46.97.69Z"/>
  <path class="cls-10" d="M293.64,129.38c-.26-.21-.53-.41-.79-.62.25.21.53.42.79.62Z"/>
  <path class="cls-10" d="M287.31,123.58c-.24-.26-.47-.51-.7-.77.23.26.47.52.7.77Z"/>
  <path class="cls-10" d="M289.95,126.23c-.18-.16-.33-.33-.51-.49.17.16.33.33.51.49Z"/>
  <path class="cls-10" d="M284.48,70.54c.21-.27.42-.54.64-.81-.21.27-.43.53-.64.81Z"/>
  <path class="cls-10" d="M279.94,77.93c.13-.26.27-.51.39-.77-.13.26-.27.51-.39.77Z"/>
  <path class="cls-10" d="M278.6,80.99c.1-.25.19-.51.3-.76-.1.25-.2.51-.3.76Z"/>
  <path class="cls-10" d="M281.17,75.59c.17-.29.33-.58.51-.88-.17.29-.34.58-.51.88Z"/>
  <path class="cls-10" d="M282.68,73.11c.15-.22.29-.45.44-.68-.15.22-.29.45-.44.68Z"/>
  <path class="cls-10" d="M277.65,83.66c.1-.3.2-.59.3-.89-.1.3-.2.59-.3.89Z"/>
  <polygon class="cls-20" points="212.68 76.55 212.68 83.94 225.57 83.94 225.57 76.56 248.27 76.56 248.27 83.94 263.28 83.94 263.28 76.55 236.12 76.55 212.68 76.55"/>
  <path class="cls-20" d="M248.27,101.1s-1.35,21.04,11.26,46.85l.18.36h1.17c.69,2.35,1.52,4.82,2.48,7.37l39.11,79.06s2.66,4.66,5.99,13.36c5.15,11.55,15.55,40.3,14.03,81.36v262.46c.51-3.84,1.08-7.61,1.75-11.27,0,0,4.03,32.97,3.78,70.36,2.37-9.87,5.11-20.08,8.23-30.26v-288.81c.21-5.81.21-11.39.04-16.75-.13-3.95-.36-7.75-.66-11.44-.16-1.96-.35-3.89-.55-5.78-2.11-19.65-6.39-35.25-10.2-46.03-3.95-11.18-7.4-17.19-7.4-17.19l-1.71-3.46-19.38-39.18-7.33-14.81-.74-1.51-7.03-14.2-6.75-13.64c-12.59-25.8-11.25-46.84-11.25-46.84v-2.39h-15.01v2.39Z"/>
  <path class="cls-20" d="M237,148.31l-.18-.36c-12.59-25.81-11.25-46.85-11.25-46.85v-2.39h-12.86c.09,4.32-.24,23.28-11.29,45.92l-1.82,3.68h37.4Z"/>
  <path class="cls-20" d="M160.32,733.31c-.36-.04-.71-.08-1.06-.12.35.04.7.08,1.06.12Z"/>
  <path class="cls-20" d="M184.64,721.02c-.85-.05-1.7-.1-2.54-.15-.03,0-.05,0-.08,0-.76-.05-1.52-.09-2.26-.14-.14-.01-.28-.02-.41-.03-1.42-.1-2.82-.2-4.2-.32,3.82,1.49,8.04,2.58,12.73,3.15-.35-.78-.71-1.58-1.06-2.39-.42-.02-.84-.04-1.26-.07-.31-.01-.62-.03-.92-.05Z"/>
  <path class="cls-20" d="M146.78,731.59c-.42-.06-.84-.12-1.26-.19.41.06.84.13,1.26.19Z"/>
  <path class="cls-20" d="M155.56,732.76c-.45-.06-.88-.11-1.32-.16.44.05.87.11,1.32.16Z"/>
  <path class="cls-20" d="M142.06,730.87c.22.04.47.07.7.11-.23-.04-.47-.07-.7-.11h0Z"/>
  <path class="cls-20" d="M151.04,732.18c-.46-.06-.9-.12-1.35-.19.45.06.89.12,1.35.19Z"/>
  <path class="cls-20" d="M336.14,665.73c.07-1.08.09-1.71.09-1.71v-3.66c-.48,1.87-.96,3.74-1.45,5.62.45-.1.91-.18,1.37-.25Z"/>
  <path class="cls-21" d="M73.94,412.11c-.09-.89.18-1.76.75-2.46.57-.7,1.38-1.13,2.27-1.21,1.91-.16,3.49,1.18,3.67,3.02.18,1.85-1.17,3.5-3.02,3.69h-.33c-.28,0-.54-.08-.8-.14-1.04,1.14-2.05,2.34-3.04,3.54v16.77c4.43-3.14,9.08-5.43,13.76-6.72v-99.12c-2.01-54.25,16.8-87.02,16.8-87.02l38.44-77.71c2.84-5.83,4.88-11.37,6.36-16.42h50.78l1.82-3.68c11.05-22.64,11.38-41.6,11.29-45.92h-66.31v2.39s.27,4.45-.64,11.71c-1.07,8.6-3.79,21.15-10.62,35.14l-42.93,86.8s-21,36.61-18.77,97.2v83.35c.42-.48.82-.98,1.24-1.45-.39-.49-.69-1.06-.75-1.73Z"/>
  <polygon class="cls-21" points="212.68 83.94 212.68 76.55 193.49 76.55 146.4 76.55 146.4 83.94 212.68 83.94"/>
  <path class="cls-21" d="M77.29,413.03h.13c.68-.08,1.18-.69,1.11-1.37-.06-.64-.59-1.12-1.24-1.12-.45.04-.75.19-.97.45-.21.25-.31.58-.28.91.06.64.6,1.12,1.24,1.12Z"/>
  <path class="cls-21" d="M73.45,437.91v7.71c1.2.28,2.4.92,3.59,2.07,5.96,5.06-3.95,12.37-1.72,19.6,4.02-1,8.78-1.25,11.89.19v-36.7c-4.68,1.37-9.34,3.81-13.76,7.13Z"/>
  <path class="cls-21" d="M73.45,653.44v10.59s.47,23.08,12.88,41.36c1.37-9.41,3.18-18.69,4.89-26.53-3.81-11.54-4.01-21.47-4.01-21.47v-176.21c-3.44,5.41-8.38,9.38-13.76,12.79v159.47Z"/>
  <path class="cls-21" d="M95.3,688.64c-.39-.75-.76-1.51-1.11-2.27-.4,2.56-.83,5.08-1.29,7.53.79-1.8,1.59-3.56,2.4-5.27Z"/>
  <path class="cls-21" d="M112.79,707.83c-.02,2.17-.5,4.41-1.29,6.65.48-.28.99-.5,1.53-.56,3.75-.41,3.3,4.08,3.64,6.8.95-2.37,2.71-5.92,5.02-8.96-3.26-1.02-6.22-2.35-8.9-3.92Z"/>
  <path class="cls-21" d="M95.99,696.68c1.15-.47,2.44-.72,3.77-.81-.73-.99-1.4-2.01-2.04-3.03-.57,1.3-1.15,2.58-1.72,3.84Z"/>
  <path class="cls-21" d="M176.69,727.52c5.66-3.87,9.87,2.79,14.85,3.3-1.04-1.96-2.37-4.48-3.66-7.3-4.69-.57-8.91-1.66-12.73-3.15-.23-.02-.47-.03-.7-.05h-.02c-1.64-.14-3.23-.28-4.79-.43-.11-.01-.22-.02-.33-.03-14.06-1.36-24.96-3.26-31.6-4.6-.63,4.44-3.13,9.26-4.62,12.07,2.79-.29,5.16-4.03,8.34-1.85,2.06,1.41,1.47,3.48.64,5.39.23.03.47.07.7.11.9.14,1.81.28,2.76.42.41.06.84.13,1.26.19.95.14,1.92.28,2.91.41.45.06.89.12,1.35.19,1.04.14,2.11.28,3.19.41.44.05.87.11,1.32.16,1.2.15,2.44.29,3.7.43.35.04.7.08,1.06.12,4.45.49,9.23.93,14.3,1.3-.76-2.62-.69-5.19,2.07-7.09Z"/>
  <path class="cls-6" d="M194.05,369.7c3.55-.29,7.15-.44,10.79-.44,23.51,0,45.14,6.14,62.38,16.43v-56.23c2.01-54.25-16.8-87.02-16.8-87.02l-38.44-77.71c-2.84-5.83-4.89-11.37-6.36-16.42h-11.57v221.39Z"/>
  <path class="cls-6" d="M237.19,621.13s13.76,22.79,25.86,50.21c-3.86-20.57-6.76-43.58-6.16-64.6,0,0,5.07,18.34,10.33,43.29v-134.52c-18.08,12.64-42.11,20.34-68.48,20.34-1.57,0-3.14-.04-4.7-.09v156.79c10.77-1.56,20.04,12.4,24.77,22.17.77-.16,1.55-.33,2.33-.49.39-3.98,1.38-7.78,6.07-7.26.94.1,1.84.42,2.67.9-3.35-9.58-3.44-19.29,3.14-26.65,5.62-6.29,16.78-8.09,24.53-4.94-7.86-17.17-15.91-37.15-20.37-55.15Z"/>
  <path class="cls-6" d="M179.76,720.73c-.14-.01-.28-.02-.41-.03.14.01.28.02.41.03Z"/>
  <path class="cls-6" d="M184.64,721.02c.31.02.62.03.92.05-.31-.01-.62-.03-.92-.05Z"/>
  <path class="cls-6" d="M169.64,719.9c-.11-.01-.22-.02-.33-.03.11.01.22.02.33.03Z"/>
  <path class="cls-14" d="M194.05,535.75c-40.01-1.4-74-20.54-88.95-47.43v169.06s.09,4.18,1.19,10.27c.73-1.25,1.15-1.96,1.15-1.96-.27,1.09-.58,2.21-.89,3.32,2.2,11.14,7.74,27.61,21.66,37.23,1.65-.62,3.4-.71,5.21.05,2.45,1.04,3.69,2.77,4.18,4.8,3.24,1.18,6.79,2.05,10.7,2.51,0,0,14.26,3.75,37.5,6.1.14-.02.29-.03.43-.04-3.93-9.88-6.04-21.68,4.74-26.27,1.04-.44,2.07-.71,3.09-.86v-156.79Z"/>
  <path class="cls-14" d="M182.1,720.87c.84.05,1.68.1,2.54.15.31.02.62.03.92.05.42.02.84.05,1.26.07,0,0,0,0,0,0-1.6-.08-3.18-.16-4.72-.25Z"/>
  <path class="cls-14" d="M179.76,720.73c.74.05,1.5.1,2.26.14-1.74-.11-3.44-.22-5.1-.35.03,0,.07,0,.11-.01-17.8-1.34-31.51-3.68-39.32-5.26h0c6.64,1.35,17.54,3.25,31.6,4.61.11.01.22.02.33.03,1.56.15,3.15.29,4.79.43h.02c.23.02.47.04.7.05,1.38.11,2.78.22,4.2.32.14.01.28.02.41.03Z"/>
  <path class="cls-14" d="M121.89,242.43s-18.8,32.77-16.79,87.02v97.41c1.36-2.44,2.88-4.82,4.55-7.12,13.35-27.04,45.63-46.91,84.41-50.05v-221.39h-27.34c-1.49,5.05-3.53,10.59-6.37,16.42l-38.44,77.71Z"/>
  <path class="cls-7" d="M298.53,416.84v-84.9c2.23-60.58-18.76-97.2-18.76-97.2l-42.76-86.43h-31.38c1.47,5.05,3.52,10.59,6.36,16.42l38.44,77.71s18.81,32.77,16.8,87.02v56.23c13.6,8.12,24.46,18.81,31.31,31.15Z"/>
  <path class="cls-7" d="M260.87,148.31h-1.17l3.64,7.37c-.96-2.55-1.78-5.01-2.48-7.37Z"/>
  <path class="cls-7" d="M321.22,331.94v271.01c.36-3.73.78-7.41,1.26-11.03v-262.46c1.52-41.06-8.88-69.81-14.03-81.36,6.02,15.76,14.22,44.82,12.77,83.84Z"/>
  <path class="cls-7" d="M220.74,719.05c.18-1.44.23-3.15.4-4.83-.78.16-1.55.33-2.33.49.77,1.58,1.42,3.06,1.93,4.34Z"/>
  <path class="cls-7" d="M298.53,478.17c-1.37,2.47-2.91,4.88-4.6,7.21-5.74,11.61-14.96,21.91-26.71,30.12v134.52c3.47,16.46,7.01,35.81,9.23,54.67.66-7.01,6.1-15.64,13.26-16.43,1.64-.18,2.96.01,4.08.43,4.49-13.18,4.73-24.67,4.73-24.67v-185.86Z"/>
  <path class="cls-7" d="M176.92,720.52c1.67.13,3.37.24,5.1.35.02,0,.05,0,.08,0,1.54.1,3.12.18,4.72.25,0,0,0-.01,0-.01-3.38-.16-6.65-.37-9.79-.6-.03,0-.07,0-.11.01Z"/>
  <path class="cls-7" d="M186.26,719.76s-.03-.06-.04-.09c-.14.01-.29.03-.43.04.16.01.31.03.46.05Z"/>
  <path class="cls-15" d="M148.29,713.62c-3.91-.47-7.47-1.33-10.7-2.51.31,1.29.32,2.69.12,4.15,7.81,1.58,21.52,3.92,39.32,5.26,3.14.24,6.41.44,9.79.6-.19-.45-.37-.89-.56-1.35-.16-.02-.31-.03-.46-.05-23.25-2.35-37.5-6.1-37.5-6.1Z"/>
  <path class="cls-15" d="M90.58,430.61c.68,0,1.25-.55,1.25-1.24s-.56-1.25-1.25-1.25-1.25.56-1.25,1.25.56,1.24,1.25,1.24Z"/>
  <path class="cls-15" d="M87.2,657.38s.2,9.93,4.01,21.47c2.71-12.42,5.14-21.24,5.14-21.24.27,9.3-.69,19.29-2.17,28.77.35.76.72,1.51,1.11,2.27,4.49-9.55,8.95-17.48,10.98-20.99-1.1-6.09-1.19-10.27-1.19-10.27v-169.06c-5.25-9.43-8.16-19.82-8.16-30.72s2.91-21.29,8.16-30.73v-97.41c-2.01-54.25,16.79-87.02,16.79-87.02l38.44-77.71c2.84-5.83,4.89-11.37,6.37-16.42h-17.89c-1.48,5.05-3.53,10.59-6.36,16.42l-38.44,77.71s-18.81,32.77-16.8,87.02v99.12s.08-.03.12-.04c.37-1.45,1.68-2.53,3.25-2.53,1.86,0,3.36,1.51,3.36,3.36s-1.5,3.37-3.36,3.37c-1.38,0-2.57-.84-3.09-2.04-.09.03-.19.05-.28.08v36.7c3.22,1.5,4.66,4.82,1.55,11.07-.46.93-1.01,1.77-1.55,2.63v176.21Z"/>
  <path class="cls-15" d="M106.54,669.02c-2.22,7.86-5.47,16.19-8.83,23.82.64,1.02,1.32,2.04,2.04,3.03,3.69-.24,7.69.98,10.01,3.58,2.17,2.43,3.05,5.32,3.02,8.38,2.68,1.58,5.64,2.9,8.9,3.92,1.86-2.46,4.08-4.58,6.51-5.5-13.92-9.62-19.46-26.1-21.66-37.23Z"/>
  <rect class="cls-22" x="193.49" y="49.06" width="42.63" height="20.1"/>
  <path class="cls-13" d="M271.11,69.16v-6.83c0-7.33-5.95-13.27-13.28-13.27h-21.71v20.1h34.99Z"/>
  <path class="cls-5" d="M138.57,62.34c0-.77.08-1.52.21-2.25-.13.73-.21,1.48-.21,2.25Z"/>
  <path class="cls-5" d="M140.5,55.47c.38-.62.8-1.21,1.27-1.76-.47.55-.89,1.14-1.27,1.76Z"/>
  <path class="cls-3" d="M141.79,53.68c2-2.31,4.79-3.93,7.95-4.43v19.91h43.75v-20.1h-41.65c-4.02,0-7.62,1.79-10.06,4.62Z"/>
  <path class="cls-5" d="M139.48,57.54c.25-.66.56-1.29.91-1.88-.35.6-.66,1.23-.91,1.88Z"/>
  <path class="cls-5" d="M138.81,59.84c.14-.7.33-1.38.57-2.04-.24.66-.44,1.33-.57,2.04Z"/>
  <path class="cls-2" d="M193.49,69.16h-43.75v-19.91c-3.16.5-5.95,2.12-7.95,4.43,0,0-.01.01-.02.02-.47.55-.89,1.14-1.27,1.76-.04.06-.08.12-.11.19-.35.6-.65,1.23-.91,1.88-.04.09-.07.18-.1.27-.24.66-.43,1.33-.57,2.04-.02.08-.02.16-.04.24-.13.73-.21,1.48-.21,2.25v14.21h132.55v-7.39h-77.62Z"/>
  <rect class="cls-4" x="225.57" y="76.56" width="22.69" height="7.38"/>
  <polygon class="cls-22" points="225.57 83.94 212.68 83.94 146.4 83.94 142.31 83.94 142.31 98.71 146.4 98.71 212.71 98.71 225.57 98.71 248.27 98.71 263.28 98.71 267.37 98.71 267.37 83.94 263.28 83.94 248.27 83.94 225.57 83.94"/>
  <path class="cls-16" d="M319.73,675.35c1.17-1.18,2.37-2.28,3.6-3.3,1.38-6.73,2.93-13.79,4.68-21.04.24-37.4-3.78-70.36-3.78-70.36-.66,3.66-1.24,7.43-1.75,11.27-.48,3.62-.9,7.3-1.26,11.03-2.4,24.86-2.27,51.52-1.49,72.4Z"/>
  <path class="cls-17" d="M343.01,631.77c4.83-23.09,10.99-57.42,10.99-57.42-2.01,4.14-3.92,8.41-5.74,12.77-1.54,3.68-11.8,32.9-12.02,33.63-3.12,10.18-5.86,20.4-8.23,30.26-1.75,7.25-3.3,14.31-4.68,21.04,3.58-2.95,7.42-5.14,11.45-6.06.49-1.88.98-3.76,1.45-5.62.78-3.07,1.54-6.11,2.27-9.13,1.62-6.68,3.13-13.21,4.5-19.46Z"/>
  <path class="cls-16" d="M263.05,671.34c-12.1-27.43-25.86-50.21-25.86-50.21,4.47,18,12.51,37.97,20.37,55.15,1.11.45,2.16,1.01,3.11,1.67,1.81,1.26,3.32,2.87,4.63,4.67-.78-3.66-1.54-7.42-2.26-11.28Z"/>
  <path class="cls-17" d="M256.89,606.74c-.6,21.02,2.29,44.03,6.16,64.6.72,3.86,1.48,7.62,2.26,11.28,5.1,7.01,7.08,17.23,11.07,23.87-.02-.58.02-1.18.07-1.79-2.22-18.86-5.77-38.21-9.23-54.67-5.26-24.95-10.33-43.29-10.33-43.29Z"/>
  <path class="cls-12" d="M323.33,672.05c-1.23,1.02-2.43,2.12-3.6,3.3-9.31,9.41-16.46,23.37-19.88,31.87-.8-6.4-.05-16.26-6.05-18.52-1.12-.42-2.44-.61-4.08-.43-7.17.78-12.61,9.42-13.26,16.43-.06.61-.09,1.21-.07,1.79-3.99-6.64-5.97-16.85-11.07-23.87-1.31-1.81-2.82-3.41-4.63-4.67-.95-.66-2-1.22-3.11-1.67-7.75-3.15-18.91-1.36-24.53,4.94-6.58,7.37-6.49,17.08-3.14,26.65,3.56,2.04,5.95,6.99,5.85,10.73,3.21-5.33,4.36-14.29,10.02-18.23,4.83-3.35,13.55-2.52,17.66,2.08,9.44,10.57-2.55,28.68-11.55,36.4.49.4.97.79,1.44,1.15h.17s115.08,0,115.08,0c2.76-6.27,7.65-14.46.25-19.53-8.85-6.07-15.45,4.35-23.24,5.16,7.66-14.44,25.21-48.25.91-58.58-3.54-1.51-7-1.85-10.34-1.32-.46.07-.91.15-1.37.25-4.03.93-7.87,3.11-11.45,6.06Z"/>
  <path class="cls-19" d="M263.42,702.44c-4.11-4.6-12.84-5.43-17.66-2.08-5.66,3.94-6.82,12.9-10.02,18.23.1-3.74-2.29-8.69-5.85-10.73-.83-.48-1.73-.8-2.67-.9-4.69-.52-5.69,3.28-6.07,7.26-.16,1.68-.22,3.39-.4,4.83-.51-1.28-1.16-2.76-1.93-4.34-4.73-9.78-14-23.73-24.77-22.17-1.02.15-2.05.42-3.09.86-10.78,4.59-8.67,16.39-4.74,26.27.01.03.03.06.04.09.18.46.37.9.56,1.35,0,0,0,0,0,.01,0,0,0,0,0,0,.35.82.7,1.61,1.06,2.39,1.29,2.81,2.62,5.33,3.66,7.3-4.98-.51-9.19-7.18-14.85-3.3-2.76,1.9-2.84,4.48-2.07,7.09.54,1.85,1.5,3.72,2.23,5.39h73.61c.46-.36.93-.75,1.4-1.16,9-7.72,20.99-25.84,11.55-36.4Z"/>
  <path class="cls-16" d="M106.54,669.02c.32-1.12.62-2.23.89-3.32,0,0-.42.7-1.15,1.96-2.03,3.51-6.49,11.44-10.98,20.99-.8,1.71-1.61,3.47-2.4,5.27-.41,2.19-.84,4.33-1.29,6.41.75-1.04,1.58-1.98,2.62-2.7.53-.37,1.12-.68,1.75-.94.58-1.26,1.15-2.54,1.72-3.84,3.36-7.63,6.61-15.96,8.83-23.82Z"/>
  <path class="cls-17" d="M94.2,686.38c1.48-9.47,2.43-19.47,2.17-28.77,0,0-2.44,8.82-5.14,21.24-1.71,7.84-3.52,17.12-4.89,26.53-.36,2.47-.69,4.94-.97,7.4.02.29.06.59.06.87,2.23-3.71,3.37-9.39,6.2-13.33.44-2.08.87-4.22,1.29-6.41.46-2.46.89-4.98,1.29-7.53Z"/>
  <path class="cls-12" d="M92.69,711.38c2.31-2.58,7.21-3.05,9.92-1.17,3.18,2.21,3.83,7.24,5.63,10.24-.06-2.08,1.28-4.82,3.25-5.98.79-2.24,1.27-4.48,1.29-6.65.03-3.06-.85-5.95-3.02-8.38-2.33-2.6-6.32-3.81-10.01-3.58-1.32.08-2.62.34-3.77.81-.63.25-1.21.57-1.75.94-1.04.72-1.88,1.67-2.62,2.7-2.84,3.94-3.97,9.62-6.2,13.33,0-.28-.04-.57-.06-.87-.31-3.96-3.36-8.92-7.44-9.37-5.87-.64-5.16,6.38-5.69,10.65-1.92-4.78-5.93-12.62-11.17-17.91-.66-.66-1.33-1.29-2.03-1.86-2.01-1.66-4.17-2.89-6.43-3.41-2.11-.49-4.31-.36-6.58.6-13.66,5.81-3.79,24.8.51,32.91-4.38-.45-8.09-6.31-13.06-2.9-4.16,2.84-1.41,7.45.14,10.97h64.75c.26-.2.53-.44.8-.66-5.05-4.34-11.78-14.51-6.48-20.44Z"/>
  <path class="cls-19" d="M141.42,725.47c-3.18-2.18-5.54,1.57-8.34,1.85,1.49-2.8,4-7.63,4.62-12.07h0c.2-1.46.19-2.87-.12-4.15-.49-2.04-1.73-3.76-4.18-4.8-1.81-.77-3.55-.68-5.21-.05-2.43.92-4.65,3.04-6.51,5.5-2.3,3.05-4.07,6.59-5.02,8.96-.34-2.72.11-7.21-3.64-6.8-.54.06-1.05.28-1.53.56-1.98,1.16-3.31,3.89-3.25,5.98-1.8-2.99-2.45-8.03-5.63-10.24-2.71-1.89-7.61-1.42-9.92,1.17-5.3,5.94,1.42,16.1,6.48,20.44.27.23.54.46.8.66h.06s41.3,0,41.3,0c.22-.51.49-1.06.73-1.62h0c.83-1.91,1.41-3.98-.64-5.39Z"/>
  <path class="cls-4" d="M202.26,416.29c-2.44,0-4.42,2.42-4.42,5.4s1.98,5.39,4.42,5.39,4.42-2.41,4.42-5.39-1.98-5.4-4.42-5.4Z"/>
  <path class="cls-18" d="M76.33,410.99c.21-.26.52-.41.97-.45.65,0,1.17.48,1.24,1.12.07.68-.44,1.29-1.11,1.36h-.13c-.64.01-1.17-.47-1.24-1.11-.03-.33.06-.66.28-.91Z"/>
  <path class="cls-18" d="M90.58,428.12c.68,0,1.25.56,1.25,1.25s-.56,1.24-1.25,1.24-1.25-.55-1.25-1.24.56-1.25,1.25-1.25Z"/>
  <polygon class="cls-21" points="73.45 393.93 73.45 521.25 87.2 523.92 87.2 390.65 73.45 393.93"/>
  <polygon class="cls-15" points="87.2 407.46 87.2 523.92 97.71 520.23 94.19 388.6 87.2 407.46"/>
  <polygon class="cls-15" points="105.1 410.54 105.1 512.65 95.3 502.81 94.1 395.84 105.1 410.54"/>
  <polygon class="cls-14" points="194.05 353.33 194.05 580.65 105.1 580.65 105.1 339.8 194.05 353.33"/>
  <polygon class="cls-6" points="194.05 311.68 266.63 357.64 266.63 562.47 194.05 568.01 194.05 311.68"/>
  <polygon class="cls-7" points="267.22 347.79 298.53 353.95 298.53 521.26 265.31 528.64 267.22 347.79"/>
  <g>
    <path class="cls-1" d="M117.48,371v-21.97h5.78v1.64c.79-.67,1.66-1.19,2.61-1.54.96-.35,2-.53,3.12-.53,1.41,0,2.68.29,3.82.86,1.14.58,2.07,1.38,2.8,2.42.87-1.07,1.93-1.88,3.16-2.45,1.24-.56,2.6-.84,4.09-.84,2.45,0,4.45.82,6.03,2.45,1.57,1.63,2.36,3.72,2.36,6.28v13.66h-5.78v-12.82c0-1.38-.37-2.49-1.12-3.33-.74-.84-1.75-1.26-3.01-1.26-.87,0-1.67.19-2.38.57s-1.33.92-1.83,1.62c.03.25.06.51.08.76.03.25.04.52.04.8v13.66h-5.78v-12.82c0-1.38-.37-2.49-1.12-3.33-.74-.84-1.75-1.26-3.01-1.26-.87,0-1.64.17-2.32.51s-1.26.83-1.77,1.48v15.43h-5.78Z"/>
    <path class="cls-1" d="M158.55,346.42c-.9,0-1.67-.32-2.32-.97-.65-.65-.97-1.42-.97-2.32s.32-1.67.97-2.32c.65-.65,1.42-.97,2.32-.97s1.67.32,2.32.97c.65.65.97,1.42.97,2.32s-.32,1.67-.97,2.32c-.65.65-1.42.97-2.32.97ZM161.46,349.03v21.97h-5.78v-21.97h5.78Z"/>
    <path class="cls-1" d="M171.74,340.22v30.78h-5.78v-29.51l5.78-1.26Z"/>
    <path class="cls-1" d="M176.25,371v-29.51l5.78-1.26v18.09l9.49-9.28h6.54l-10.29,10.08,10.92,11.89h-7.38l-9.28-10.03v10.03h-5.78Z"/>
    <path class="cls-1" d="M226.47,364.8v-10.92h-4.51v-4.85h4.51v-5.61l5.78-1.31v6.91h6.24v4.85h-6.24v9.74c0,1.04.22,1.77.67,2.19.45.42,1.24.63,2.36.63.53,0,1.04-.03,1.52-.1.48-.07,1-.2,1.56-.4v4.72c-.62.2-1.36.36-2.23.48-.87.13-1.62.19-2.23.19-2.45,0-4.29-.55-5.54-1.67-1.25-1.11-1.88-2.73-1.88-4.87Z"/>
    <path class="cls-1" d="M240.13,360.04c0-1.6.3-3.1.91-4.49.6-1.39,1.43-2.6,2.49-3.63,1.05-1.03,2.3-1.83,3.73-2.42s2.97-.89,4.6-.89,3.16.3,4.6.89,2.68,1.4,3.73,2.42c1.05,1.03,1.88,2.23,2.49,3.63.6,1.39.91,2.89.91,4.49s-.3,3.1-.91,4.49c-.6,1.39-1.43,2.59-2.49,3.6-1.05,1.01-2.3,1.81-3.73,2.4-1.43.59-2.97.89-4.6.89s-3.16-.3-4.6-.89c-1.43-.59-2.68-1.39-3.73-2.4-1.05-1.01-1.88-2.21-2.49-3.6-.6-1.39-.91-2.89-.91-4.49ZM251.85,366.4c1.69,0,3.12-.62,4.3-1.86,1.18-1.24,1.77-2.74,1.77-4.51s-.59-3.32-1.77-4.55c-1.18-1.24-2.61-1.86-4.3-1.86s-3.12.62-4.3,1.86c-1.18,1.24-1.77,2.76-1.77,4.55s.59,3.27,1.77,4.51c1.18,1.24,2.61,1.86,4.3,1.86Z"/>
    <path class="cls-1" d="M273.44,371l-9.44-21.97h6.28l6.03,14.63,5.99-14.63h6.16l-9.44,21.97h-5.57Z"/>
    <path class="cls-1" d="M207.59,347.88c-.05.01-.1.02-.15.04.01,0,.03-.01.04-.02.04,0,.07-.01.11-.02Z"/>
    <path class="cls-1" d="M207.59,347.88c-.05.01-.1.02-.15.04.01,0,.03-.01.04-.02.04,0,.07-.01.11-.02Z"/>
    <path class="cls-9" d="M221.32,357.63c-.22-1.21-.62-2.35-1.18-3.41-.85-1.62-2.06-3.03-3.52-4.11-.7.81-1.12,1.87-1.12,3.03,0,.4.05.79.15,1.15-.72-.34-1.35-.86-1.84-1.49-.65-.85-1.03-1.91-1.03-3.06v-.02s.02-.56.06-.78c.04-.23.06-.46.07-.69,0-.06,0-.12,0-.18,0-1.97-1.13-3.68-2.78-4.51-.7,2.1-1.05,3.25-3.71,4.76-.75.4-1.39.98-1.86,1.68-.25.39-.46.81-.6,1.26-.15.48-.24,1-.24,1.53,0,1.25.46,2.4,1.22,3.28-.46.25-1,.39-1.56.39-1.84,0-3.33-1.49-3.33-3.33,0-.41.07-.79.2-1.15-1.81,2.11-2.91,4.86-2.91,7.86,0,6.68,5.41,12.09,12.09,12.09s12.09-5.41,12.09-12.09c0-.75-.07-1.49-.2-2.2Z"/>
  </g>
</svg>