<?xml version="1.0" encoding="UTF-8"?>
<svg id="Layer_1" data-name="Layer 1" xmlns="http://www.w3.org/2000/svg" viewBox="0 0 401.31 768">
  <defs>
    <style>
      .cls-1 {
        fill: #fff;
      }
    </style>
  </defs>
  <path class="cls-1" d="M134.58,109.37c-5.38,28.49-17.2,55.73-34.64,78.99-11.09,14.79-20.32,30.9-27.56,47.85h257.37c-7.24-16.95-16.47-33.05-27.56-47.85-17.44-23.27-29.26-50.5-34.64-78.99h-132.97Z"/>
  <path class="cls-1" d="M262.64,67.39h1.57v-.08c10.86-.81,19.42-9.85,19.42-20.91s-9.4-20.99-20.99-20.99h-123.17c-11.59,0-20.99,9.4-20.99,20.99s8.56,20.11,19.42,20.91v.08h124.74,0Z"/>
  <g>
    <path class="cls-1" d="M265.12,528.17c-2.21,0-4.09.81-5.64,2.43-1.55,1.62-2.32,3.61-2.32,5.97s.77,4.29,2.32,5.91c1.55,1.62,3.43,2.43,5.64,2.43s4.09-.81,5.64-2.43c1.55-1.62,2.32-3.59,2.32-5.91s-.77-4.35-2.32-5.97c-1.55-1.62-3.43-2.43-5.64-2.43Z"/>
    <path class="cls-1" d="M343.17,278.2H58.95c-3.54,16.16-5.37,32.71-5.37,49.3v335.85c0,43.36,35.28,78.64,78.64,78.64h137.69c43.36,0,78.64-35.28,78.64-78.64v-335.85c0-16.59-1.83-33.14-5.37-49.3h0ZM133.3,550.93h-7.57v-16.8c0-1.8-.49-3.26-1.46-4.36-.98-1.11-2.29-1.66-3.95-1.66-1.14,0-2.18.25-3.12.75s-1.74,1.21-2.4,2.13c.04.33.07.66.11.99s.06.68.06,1.05v17.9h-7.57v-16.8c0-1.8-.49-3.26-1.46-4.36-.98-1.11-2.29-1.66-3.95-1.66-1.14,0-2.15.22-3.04.66-.88.44-1.66,1.09-2.32,1.93v20.22h-7.57v-28.79h7.57v2.15c1.03-.88,2.17-1.56,3.43-2.02,1.25-.46,2.61-.69,4.09-.69,1.84,0,3.51.38,5,1.13,1.49.76,2.72,1.81,3.67,3.18,1.14-1.4,2.52-2.47,4.14-3.2,1.62-.74,3.41-1.1,5.36-1.1,3.2,0,5.84,1.07,7.9,3.2,2.06,2.14,3.09,4.88,3.09,8.23v17.92ZM146.67,550.93h-7.57v-28.79h7.57v28.79ZM145.89,517.45c-.85.85-1.86,1.27-3.04,1.27s-2.19-.42-3.04-1.27c-.85-.85-1.27-1.86-1.27-3.04s.42-2.19,1.27-3.04,1.86-1.27,3.04-1.27,2.19.42,3.04,1.27c.85.85,1.27,1.86,1.27,3.04s-.42,2.19-1.27,3.04ZM160.15,550.93h-7.57v-38.67l7.57-1.66v40.33ZM185.78,550.93l-12.16-13.15v13.15h-7.57v-38.67l7.57-1.66v23.7l12.43-12.16h8.56l-13.48,13.2,14.31,15.58h-9.67.01ZM209.53,552.14c-8.75,0-15.84-7.09-15.84-15.84,0-3.93,1.43-7.53,3.81-10.3-.17.47-.27.98-.27,1.51,0,2.41,1.96,4.37,4.37,4.37.74,0,1.44-.18,2.04-.51-.99-1.16-1.59-2.66-1.59-4.3,0-.7.11-1.37.31-2,.19-.59.45-1.14.79-1.65.61-.92,1.45-1.68,2.43-2.2,3.49-1.98,3.95-3.49,4.87-6.23,2.16,1.09,3.65,3.33,3.65,5.91v.23c0,.31-.04.61-.09.9-.05.29-.12.97-.08,1.03v.02c0,1.51.51,2.9,1.36,4.01.63.83,1.46,1.5,2.41,1.96-.13-.48-.19-.99-.19-1.51,0-1.52.55-2.9,1.47-3.96,1.91,1.42,3.49,3.26,4.61,5.38.72,1.38,1.25,2.88,1.54,4.46.17.94.26,1.9.26,2.88,0,8.75-7.09,15.84-15.84,15.84h-.02ZM247.61,528.5h-8.18v12.76c0,1.36.29,2.32.88,2.87.59.55,1.62.83,3.09.83.7,0,1.36-.05,1.99-.14s1.31-.27,2.04-.53v6.19c-.81.26-1.79.47-2.93.64-1.14.17-2.12.25-2.93.25-3.2,0-5.63-.73-7.27-2.18s-2.46-3.58-2.46-6.38v-14.31h-5.91v-6.35h5.91v-7.35l7.57-1.71v9.06h8.18v6.35h.02ZM279.29,542.45c-.79,1.82-1.88,3.4-3.26,4.72-1.38,1.33-3.01,2.38-4.89,3.15s-3.89,1.16-6.02,1.16-4.14-.39-6.02-1.16c-1.88-.77-3.51-1.82-4.89-3.15s-2.47-2.9-3.26-4.72c-.79-1.82-1.19-3.78-1.19-5.88s.4-4.06,1.19-5.88c.79-1.82,1.88-3.41,3.26-4.75,1.38-1.34,3.01-2.4,4.89-3.18,1.88-.77,3.89-1.16,6.02-1.16s4.14.39,6.02,1.16c1.88.77,3.51,1.83,4.89,3.18,1.38,1.34,2.47,2.93,3.26,4.75s1.19,3.78,1.19,5.88-.4,4.06-1.19,5.88ZM300.7,550.93h-7.29l-12.38-28.79h8.23l7.9,19.17,7.85-19.17h8.07l-12.38,28.79Z"/>
  </g>
</svg>