<?xml version="1.0" encoding="UTF-8"?>
<svg xmlns="http://www.w3.org/2000/svg" viewBox="0 0 500 300">
  <defs>
    <style>
      .cls-1, .cls-2 {
        fill: #ffd31c;
      }

      .cls-3 {
        fill: #fff;
      }

      .cls-4 {
        fill: #ffde1d;
      }

      .cls-5 {
        isolation: isolate;
      }

      .cls-6 {
        fill: #f8b022;
      }

      .cls-2 {
        mix-blend-mode: multiply;
        opacity: .7;
      }
    </style>
  </defs>
  <g class="cls-5">
    <g id="Layer_1" data-name="Layer 1">
      <g>
        <g>
          <path class="cls-1" d="M138.9,269.34c-.68-2.18-1.33-4.4-1.9-6.63,13.4.21,24.69.34,26.55.49,3.31.24-12.98,3.25-24.65,6.14Z"/>
          <path class="cls-4" d="M367.85,233.76c0,18-4.06,35.04-11.31,50.28h-211.83c-1.54-3.16-2.91-6.44-4.13-9.75,36.02.9,103.67-3.98,102.06-8.96-1.6-4.98,74.46-6.58,73.76-8.19-.71-1.6-135.59-.9-137.19-3.57-1.6-2.67,94.97-7.65,99.07-9.62,2.63-1.26-52.74-.9-92.25-.47-21.64.21-38.52.47-38.52.47,0,0-1.65.04-4.64.11-1.28.04-2.82.09-4.6.13-1.35.04-2.8.06-4.38.11-.32-3.48-.49-6.99-.49-10.54,0-15.16,2.89-29.63,8.12-42.91,35.08-3.38,16.68-9.15,18.28-11.57,1.6-2.42,152.33-.66,150.98-4-1.33-3.36-139.35-3.76-136.55-8.29,2.8-4.53,80.47-7.63,78.83-9.26-1.11-1.11-56.31-.71-91.35-.34,21.51-25.01,53.34-40.88,88.92-40.88,43.57,0,81.56,23.75,101.77,59.03,2.78,4.85,5.24,9.92,7.31,15.18l-48.72,1.11-36,.81s13.49.81,28.56,1.97c18.77,1.45,40,3.42,40.66,4.98.15.34-.28.71-1.13,1.07h-.02c-.56.24-1.28.45-2.14.68-.09,0-.17.04-.26.06-5.64,1.45-16.65,2.84-23.9,3.68-.68.06-1.05.6-1.09,1.15-.04.53.26,1.11.94,1.28l2.52.64,47.93,11.99c.53,4.47.79,9,.79,13.6Z"/>
        </g>
        <path class="cls-2" d="M343.05,200.67c-.56.24-1.28.45-2.14.68.73-.24,1.43-.47,2.14-.68Z"/>
        <path class="cls-2" d="M367.85,233.76c0,18-4.06,35.04-11.31,50.28h-211.83c-1.54-3.16-2.91-6.44-4.13-9.75,36.02.9,103.67-3.98,102.06-8.96-1.6-4.98,74.46-6.58,73.76-8.19-.71-1.6-135.59-.9-137.19-3.57-1.6-2.67,94.97-7.65,99.07-9.62,2.63-1.26-52.74-.9-92.25-.47,45.13-9.45,93.66-23.17,133.09-35.32l47.93,11.99c.53,4.47.79,9,.79,13.6Z"/>
        <path class="cls-2" d="M359.7,190.73l-48.72,1.11c16.7-6.33,30.89-11.99,41.41-16.29,2.78,4.85,5.24,9.92,7.31,15.18Z"/>
        <path class="cls-2" d="M367.85,233.76c0,6.55-.54,12.98-1.57,19.24-1.81,10.93-5.13,21.35-9.74,31.04h-211.83c-1.54-3.16-2.91-6.44-4.13-9.75,36.02.9,103.67-3.98,102.06-8.96-1.6-4.98,74.46-6.58,73.76-8.19-.71-1.6-135.59-.9-137.19-3.57-1.6-2.67,94.97-7.65,99.07-9.62,2.63-1.26-52.74-.9-92.25-.47-21.64.21-38.52.47-38.52.47,0,0-1.65.04-4.64.11-1.28.04-2.82.09-4.6.13,57.02-11.5,119.3-32.43,165.26-49.58,18.77,1.45,40,3.42,40.66,4.98.15.34-.28.71-1.13,1.07h-.02c-.56.24-1.28.45-2.14.68-.09,0-.17.04-.26.06-5.64,1.45-16.65,2.84-23.9,3.68-.68.06-1.05.6-1.09,1.15-.04.53.26,1.11.94,1.28l2.52.64,47.93,11.99c.53,4.47.79,9,.79,13.6Z"/>
        <g>
          <path class="cls-6" d="M121.59,199.19l-52.11-14.05,42.23,17.56-76.2-16.46,82.25,26.85c1.02-4.69,2.3-9.33,3.82-13.91Z"/>
          <path class="cls-6" d="M114.93,233.71l-54.02-.08,45.34,6.04-77.86,3.83,86.42,4.65c-.22-4.81-.18-9.63.11-14.43Z"/>
          <path class="cls-6" d="M306.12,62.09l-17.56,42.23,16.46-76.2-26.85,82.25c4.69,1.02,9.33,2.3,13.91,3.82l14.05-52.11Z"/>
          <path class="cls-6" d="M208.51,113.57c4.6-1.45,9.27-2.65,13.97-3.6l-13.9-52.18,5.91,45.36-23.85-74.22,17.87,84.64Z"/>
          <path class="cls-6" d="M350.73,82.92l-27.9,36.25,35.62-69.34-47.2,72.46c4.25,2.19,8.4,4.63,12.44,7.3l27.04-46.67Z"/>
          <path class="cls-6" d="M257.56,107.54l.08-54.02-6.03,45.34-3.83-77.86-4.65,86.42c4.81-.22,9.63-.18,14.43.11Z"/>
          <path class="cls-6" d="M340.1,142.4c1.52,1.39,3.02,2.81,4.49,4.28,1.95,1.95,3.83,3.96,5.64,6l38.21-38.09-36.33,27.79,52.35-57.76-64.36,57.78Z"/>
          <path class="cls-6" d="M176.67,128.49c4.08-2.61,8.27-4.99,12.55-7.12l-26.9-46.75,17.44,42.28-42.24-65.52,39.15,77.11Z"/>
          <path class="cls-6" d="M362.78,169.28c2.61,4.08,4.99,8.27,7.12,12.55l46.75-26.9-42.28,17.44,65.52-42.24-77.11,39.15Z"/>
          <path class="cls-6" d="M377.69,201.12c1.45,4.6,2.65,9.27,3.6,13.97l52.18-13.9-45.36,5.91,74.22-23.85-84.64,17.87Z"/>
          <path class="cls-6" d="M383.84,235.73c.22,4.81.18,9.63-.11,14.43l54.02.08-45.34-6.04,77.86-3.82-86.42-4.65Z"/>
          <path class="cls-6" d="M129.68,180.01c2.19-4.25,4.63-8.4,7.3-12.44l-46.67-27.04,36.25,27.9-69.34-35.62,72.46,47.2Z"/>
          <path class="cls-6" d="M149.79,151.16c1.39-1.52,2.81-3.02,4.28-4.49,1.95-1.95,3.96-3.83,6-5.64l-38.09-38.21,27.79,36.33-57.76-52.35,57.78,64.36Z"/>
          <rect class="cls-3" x="28.77" y="252.26" width="459.92" height="98.74"/>
        </g>
      </g>
    </g>
  </g>
</svg>