<?xml version="1.0" encoding="UTF-8"?>
<svg xmlns="http://www.w3.org/2000/svg" viewBox="0 0 500 500">
  <defs>
    <style>
      .cls-1, .cls-2 {
        fill: #ffd31c;
      }

      .cls-3 {
        fill: #c18a19;
      }

      .cls-4 {
        fill: #fff;
      }

      .cls-5 {
        fill: #606060;
      }

      .cls-6 {
        fill: #ffde1d;
      }

      .cls-7 {
        isolation: isolate;
      }

      .cls-8 {
        fill: #f8b022;
      }

      .cls-2 {
        mix-blend-mode: multiply;
        opacity: .7;
      }
    </style>
  </defs>
  <g class="cls-7">
    <g id="Layer_1" data-name="Layer 1">
      <g>
        <g>
          <path class="cls-1" d="M145.27,251.6c-.65-2.09-1.27-4.21-1.82-6.34,12.83.2,23.62.33,25.4.47,3.17.22-12.42,3.11-23.58,5.87Z"/>
          <path class="cls-6" d="M364.31,217.56c0,17.22-3.89,33.52-10.82,48.11h-202.66c-1.47-3.03-2.78-6.16-3.95-9.33,34.47.86,99.18-3.8,97.65-8.57-1.53-4.77,71.24-6.3,70.57-7.83-.68-1.53-129.72-.86-131.26-3.42-1.53-2.56,90.86-7.32,94.79-9.2,2.52-1.21-50.46-.86-88.26-.45-20.7.2-36.86.45-36.86.45,0,0-1.58.04-4.44.1-1.23.04-2.7.08-4.4.12-1.29.04-2.68.06-4.19.1-.31-3.33-.47-6.69-.47-10.08,0-14.5,2.76-28.35,7.77-41.05,33.57-3.23,15.95-8.75,17.49-11.07,1.53-2.31,145.74-.63,144.45-3.82-1.27-3.21-133.32-3.6-130.64-7.94,2.68-4.34,76.99-7.3,75.42-8.86-1.06-1.06-53.88-.67-87.4-.33,20.58-23.93,51.03-39.11,85.07-39.11,41.69,0,78.03,22.73,97.36,56.47,2.66,4.64,5.01,9.49,6.99,14.52l-46.62,1.06-34.45.78s12.91.78,27.33,1.88c17.96,1.39,38.27,3.27,38.9,4.77.14.33-.27.68-1.08,1.02h-.02c-.53.22-1.23.43-2.05.65-.08,0-.16.04-.25.06-5.4,1.39-15.93,2.72-22.87,3.52-.65.06-1,.57-1.04,1.1-.04.51.25,1.06.9,1.23l2.41.61,45.86,11.48c.51,4.28.76,8.61.76,13.01Z"/>
        </g>
        <path class="cls-2" d="M340.59,185.9c-.53.22-1.23.43-2.05.65.7-.22,1.37-.45,2.05-.65Z"/>
        <path class="cls-2" d="M364.31,217.56c0,17.22-3.89,33.52-10.82,48.11h-202.66c-1.47-3.03-2.78-6.16-3.95-9.33,34.47.86,99.18-3.8,97.65-8.57-1.53-4.77,71.24-6.3,70.57-7.83-.68-1.53-129.72-.86-131.26-3.42-1.53-2.56,90.86-7.32,94.79-9.2,2.52-1.21-50.46-.86-88.26-.45,43.18-9.04,89.61-22.17,127.33-33.79l45.86,11.48c.51,4.28.76,8.61.76,13.01Z"/>
        <path class="cls-2" d="M356.52,176.39l-46.62,1.06c15.97-6.05,29.56-11.48,39.62-15.59,2.66,4.64,5.01,9.49,6.99,14.52Z"/>
        <path class="cls-2" d="M364.31,217.56c0,6.27-.52,12.42-1.51,18.41-1.73,10.46-4.91,20.43-9.32,29.7h-202.66c-1.47-3.03-2.78-6.16-3.95-9.33,34.47.86,99.18-3.8,97.65-8.57-1.53-4.77,71.24-6.3,70.57-7.83-.68-1.53-129.72-.86-131.26-3.42-1.53-2.56,90.86-7.32,94.79-9.2,2.52-1.21-50.46-.86-88.26-.45-20.7.2-36.86.45-36.86.45,0,0-1.58.04-4.44.1-1.23.04-2.7.08-4.4.12,54.55-11,114.14-31.03,158.11-47.43,17.96,1.39,38.27,3.27,38.9,4.77.14.33-.27.68-1.08,1.02h-.02c-.53.22-1.23.43-2.05.65-.08,0-.16.04-.25.06-5.4,1.39-15.93,2.72-22.87,3.52-.65.06-1,.57-1.04,1.1-.04.51.25,1.06.9,1.23l2.41.61,45.86,11.48c.51,4.28.76,8.61.76,13.01Z"/>
        <g>
          <path class="cls-8" d="M128.71,184.49l-49.85-13.44,40.4,16.8-72.9-15.75,78.69,25.69c.98-4.49,2.2-8.93,3.66-13.31Z"/>
          <path class="cls-8" d="M122.34,217.51l-51.68-.08,43.38,5.77-74.49,3.66,82.69,4.45c-.21-4.6-.17-9.21.11-13.81Z"/>
          <path class="cls-8" d="M305.26,53.32l-16.8,40.4,15.75-72.9-25.69,78.69c4.49.98,8.93,2.2,13.31,3.66l13.44-49.85Z"/>
          <path class="cls-8" d="M211.87,102.57c4.4-1.39,8.87-2.54,13.37-3.45l-13.29-49.92,5.65,43.39-22.82-71.01,17.09,80.98Z"/>
          <path class="cls-8" d="M347.94,73.24l-26.69,34.68,34.08-66.34-45.16,69.33c4.06,2.1,8.04,4.43,11.91,6.99l25.87-44.65Z"/>
          <path class="cls-8" d="M258.79,96.8l.08-51.68-5.77,43.38-3.66-74.49-4.45,82.69c4.6-.21,9.21-.17,13.81.11Z"/>
          <path class="cls-8" d="M337.77,130.15c1.45,1.33,2.89,2.69,4.29,4.09,1.87,1.87,3.66,3.79,5.39,5.74l36.56-36.44-34.75,26.59,50.09-55.26-61.57,55.28Z"/>
          <path class="cls-8" d="M181.41,116.84c3.9-2.5,7.91-4.77,12.01-6.81l-25.74-44.73,16.69,40.45-40.42-62.68,37.46,73.77Z"/>
          <path class="cls-8" d="M359.47,155.86c2.5,3.9,4.77,7.91,6.81,12.01l44.73-25.74-40.45,16.69,62.68-40.42-73.77,37.46Z"/>
          <path class="cls-8" d="M373.74,186.33c1.39,4.4,2.54,8.87,3.45,13.37l49.92-13.29-43.39,5.65,71.01-22.82-80.98,17.09Z"/>
          <path class="cls-8" d="M379.62,219.45c.21,4.6.17,9.21-.11,13.81l51.68.08-43.38-5.77,74.49-3.66-82.69-4.45Z"/>
          <path class="cls-8" d="M136.45,166.14c2.1-4.06,4.43-8.04,6.99-11.91l-44.65-25.87,34.68,26.69-66.34-34.08,69.33,45.16Z"/>
          <path class="cls-8" d="M155.69,138.53c1.33-1.45,2.69-2.89,4.09-4.29,1.87-1.87,3.79-3.66,5.74-5.39l-36.44-36.56,26.59,34.75-55.26-50.09,55.28,61.57Z"/>
        </g>
      </g>
      <rect class="cls-4" x="104.9" y="234.5" width="354.17" height="62.84"/>
      <path class="cls-3" d="M265.2,283.22c-34.45-3.84-70.48,12.55-89.56,41.49-40.67,61.71,5.68,146.14,79.2,146.47,19.57.09,38.98-6.06,55.51-16.53,18.2-11.52,29.85-28.09,36.25-48.48-10.3,25.57-47.02,39.25-71.35,40.29-27.94,1.19-55.96-13.51-71.07-37.04-15.11-23.53-16.85-54.99-4.65-80.15,12.2-25.16,37.9-42.76,65.67-46.06Z"/>
      <path class="cls-8" d="M254.84,471.18c-73.51-.33-119.87-84.75-79.2-146.47,19.08-28.94,55.1-45.33,89.56-41.49-25.6-4.93-53.06-.24-76.52,15.28-47.54,31.47-60.56,95.52-29.09,143.06,31.47,47.54,95.52,60.56,143.06,29.09,23.45-15.53,38.5-38.98,43.95-64.47-6.4,20.38-18.05,36.96-36.25,48.48-16.54,10.47-35.94,16.62-55.51,16.53Z"/>
      <polygon class="cls-3" points="263.18 378.78 245.67 372 233.82 386.55 234.85 367.81 217.35 361.03 235.49 356.23 236.53 337.48 246.71 353.26 264.85 348.45 253 363 263.18 378.78"/>
      <polygon class="cls-8" points="289.51 410.44 278.5 406.17 271.04 415.33 271.69 403.54 260.67 399.27 272.09 396.25 272.74 384.45 279.15 394.38 290.57 391.35 283.11 400.51 289.51 410.44"/>
      <polygon class="cls-3" points="264.51 324.09 255.74 320.69 249.81 327.98 250.33 318.6 241.56 315.2 250.65 312.8 251.17 303.41 256.26 311.31 265.35 308.9 259.41 316.19 264.51 324.09"/>
      <rect class="cls-5" x="29.5" y="245.92" width="441" height="11.42"/>
      <polygon class="cls-8" points="150.16 318.25 141.4 314.85 135.46 322.14 135.98 312.75 127.21 309.36 136.3 306.95 136.82 297.57 141.92 305.47 151 303.06 145.07 310.35 150.16 318.25"/>
      <polygon class="cls-8" points="353 384.4 341.98 380.13 334.52 389.29 335.18 377.5 324.16 373.23 335.58 370.21 336.23 358.41 342.64 368.34 354.06 365.32 346.6 374.47 353 384.4"/>
      <polygon class="cls-8" points="304.02 356.43 298.71 354.37 295.1 358.79 295.42 353.1 290.1 351.04 295.61 349.58 295.93 343.89 299.02 348.68 304.53 347.22 300.93 351.64 304.02 356.43"/>
      <polygon class="cls-8" points="375.16 425.25 366.4 421.85 360.46 429.14 360.98 419.75 352.21 416.36 361.3 413.95 361.82 404.57 366.92 412.47 376 410.06 370.07 417.35 375.16 425.25"/>
      <polygon class="cls-3" points="317.81 406.94 312.5 404.88 308.9 409.31 309.21 403.61 303.89 401.55 309.41 400.09 309.72 394.4 312.81 399.19 318.32 397.73 314.72 402.15 317.81 406.94"/>
      <polygon class="cls-8" points="172.81 301.94 167.5 299.88 163.9 304.31 164.21 298.61 158.89 296.55 164.41 295.09 164.72 289.4 167.81 294.19 173.32 292.73 169.72 297.15 172.81 301.94"/>
    </g>
  </g>
</svg>