<?xml version="1.0" encoding="UTF-8"?>
<svg id="_Layer_" data-name="&amp;lt;Layer&amp;gt;" xmlns="http://www.w3.org/2000/svg" viewBox="0 0 1500 1600">
  <defs>
    <style>
      .cls-1 {
        fill: #fab800;
      }

      .cls-2 {
        fill: #c99008;
      }

      .cls-3 {
        fill: #f9b61d;
      }

      .cls-4 {
        fill: #fff;
      }

      .cls-5 {
        fill: #009cc5;
      }

      .cls-6 {
        fill: #f6f4f2;
      }

      .cls-7 {
        fill: #fdfaf6;
      }

      .cls-8 {
        fill: #67731d;
      }

      .cls-9 {
        fill: #666;
      }

      .cls-10 {
        fill: #616160;
      }

      .cls-11 {
        fill: #7e921c;
      }

      .cls-12 {
        fill: #4e81af;
      }

      .cls-13 {
        fill: #333;
      }

      .cls-14 {
        fill: #fdd486;
      }

      .cls-15 {
        fill: #ebe6e3;
      }

      .cls-16 {
        fill: #dedad7;
      }

      .cls-17 {
        fill: #313659;
      }

      .cls-18 {
        fill: #d4e5eb;
      }

      .cls-19 {
        fill: #c7e0ea;
      }

      .cls-20 {
        fill: #faa119;
      }

      .cls-21 {
        fill: #fbc557;
      }
    </style>
  </defs>
  <g>
    <path class="cls-12" d="M397.27,1280.77c-.13-.15-.26-.31-.39-.46l.29.6s.06-.09.09-.13h0Z"/>
    <path class="cls-8" d="M427.33,1340.18c0,.1.01.19.02.29,0-.1,0-.19-.02-.29Z"/>
    <path class="cls-8" d="M427.21,1339.22c.01.06.02.11.02.17,0-.06-.02-.11-.02-.17Z"/>
    <path class="cls-8" d="M425.94,1336.24c.07.1.13.19.2.29-.06-.1-.13-.19-.2-.29Z"/>
    <path class="cls-8" d="M425.32,1335.48c.08.09.16.19.25.29-.08-.1-.16-.19-.25-.29Z"/>
    <path class="cls-8" d="M427.17,1342.41c-.02.09-.04.18-.06.27.02-.09.04-.18.06-.27Z"/>
    <path class="cls-8" d="M426.51,1337.2c.04.08.08.17.12.26-.04-.09-.08-.17-.12-.26Z"/>
    <path class="cls-8" d="M426.89,1338.09c.04.1.07.2.1.3-.03-.1-.06-.2-.1-.3Z"/>
    <path class="cls-8" d="M427.33,1341.41s0,.06-.01.08c0-.03,0-.06.01-.08Z"/>
    <path class="cls-8" d="M424.52,1334.74c.1.08.19.16.29.25-.1-.08-.19-.16-.29-.25Z"/>
    <path class="cls-8" d="M423.74,1334.18c.11.07.22.15.33.22-.11-.08-.22-.15-.33-.22Z"/>
    <path class="cls-11" d="M396.02,1237.79c.09-.1.18-.21.27-.31-.09.1-.18.21-.27.31Z"/>
    <path class="cls-11" d="M392.37,1244.82c.02-.06.04-.13.05-.19-.02.06-.04.12-.05.19Z"/>
    <path class="cls-11" d="M393.15,1254.62s-.02-.04-.02-.06c0,.02.02.04.02.06Z"/>
    <path class="cls-11" d="M391.95,1249.79c0-.11-.02-.23-.02-.34,0,.11.02.23.02.34Z"/>
    <path class="cls-11" d="M392.72,1253.5c-.04-.11-.07-.22-.11-.33.04.11.07.22.11.33Z"/>
    <path class="cls-11" d="M392.36,1252.3c-.02-.09-.05-.18-.07-.27.02.09.05.18.07.27Z"/>
    <path class="cls-11" d="M392.1,1246.17c.02-.11.04-.22.06-.33-.02.11-.04.22-.06.33Z"/>
    <path class="cls-11" d="M391.96,1247.28c0-.11.02-.21.04-.33-.01.11-.02.21-.04.33Z"/>
    <path class="cls-11" d="M392.08,1250.92c-.01-.08-.02-.17-.03-.25.01.08.02.17.03.25Z"/>
    <path class="cls-11" d="M394.54,1257.16c-.06-.1-.12-.19-.18-.28.06.1.12.19.18.28Z"/>
    <path class="cls-11" d="M393.85,1256.03c-.06-.1-.11-.2-.17-.31.06.1.11.21.17.31Z"/>
    <path class="cls-11" d="M395.45,1258.42c-.05-.06-.1-.11-.14-.17.04.06.1.11.14.17Z"/>
    <path class="cls-11" d="M400.39,1262.96c-.13-.09-.26-.18-.38-.27.13.09.25.18.38.27Z"/>
    <path class="cls-11" d="M399,1261.92c-.1-.08-.21-.16-.31-.25.1.08.21.17.31.25Z"/>
    <path class="cls-11" d="M396.49,1259.62c-.1-.1-.19-.2-.28-.31.09.1.19.21.28.31Z"/>
    <path class="cls-11" d="M397.53,1260.67c-.07-.06-.13-.13-.2-.19.07.06.13.13.2.19Z"/>
    <path class="cls-11" d="M395.37,1238.6c.08-.11.17-.21.25-.32-.08.11-.17.21-.25.32Z"/>
    <path class="cls-11" d="M393.57,1241.53c.05-.1.11-.2.15-.31-.05.1-.11.2-.15.31Z"/>
    <path class="cls-11" d="M393.04,1242.74c.04-.1.08-.2.12-.3-.04.1-.08.2-.12.3Z"/>
    <path class="cls-11" d="M394.05,1240.6c.07-.11.13-.23.2-.35-.07.11-.13.23-.2.35Z"/>
    <path class="cls-11" d="M394.65,1239.62c.06-.09.11-.18.17-.27-.06.09-.11.18-.17.27Z"/>
    <path class="cls-11" d="M392.66,1243.8c.04-.12.08-.23.12-.35-.04.12-.08.23-.12.35Z"/>
    <polygon class="cls-18" points="366.91 1240.98 366.91 1243.91 372.02 1243.91 372.02 1240.98 381.01 1240.98 381.01 1243.91 386.96 1243.91 386.96 1240.98 376.2 1240.98 366.91 1240.98"/>
    <path class="cls-18" d="M381.01,1250.71s-.54,8.34,4.46,18.57l.07.14h.46c.27.93.6,1.91.98,2.92l15.5,31.34s1.05,1.85,2.37,5.3c2.04,4.58,6.16,15.97,5.56,32.25v104.03c.2-1.52.43-3.02.69-4.47,0,0,1.6,13.07,1.5,27.89.94-3.91,2.03-7.96,3.26-11.99v-114.48c.08-2.3.08-4.51.02-6.64-.05-1.57-.14-3.07-.26-4.53-.06-.78-.14-1.54-.22-2.29-.84-7.79-2.53-13.97-4.04-18.25-1.57-4.43-2.93-6.81-2.93-6.81l-.68-1.37-7.68-15.53-2.91-5.87-.29-.6-2.79-5.63-2.68-5.41c-4.99-10.23-4.46-18.57-4.46-18.57v-.95h-5.95v.95h0Z"/>
    <path class="cls-18" d="M376.55,1269.42l-.07-.14c-4.99-10.23-4.46-18.57-4.46-18.57v-.95h-5.1c.04,1.71-.1,9.23-4.48,18.2l-.72,1.46h14.82Z"/>
    <path class="cls-18" d="M346.15,1501.3c-.14-.02-.28-.03-.42-.05.14.02.28.03.42.05Z"/>
    <path class="cls-18" d="M355.79,1496.43c-.34-.02-.67-.04-1.01-.06h-.03c-.3-.02-.6-.04-.9-.06-.06,0-.11,0-.16-.01-.56-.04-1.12-.08-1.66-.13,1.51.59,3.19,1.02,5.05,1.25-.14-.31-.28-.63-.42-.95-.17,0-.33-.02-.5-.03-.12,0-.25-.01-.36-.02h0Z"/>
    <path class="cls-18" d="M340.79,1500.62c-.17-.02-.33-.05-.5-.08.16.02.33.05.5.08Z"/>
    <path class="cls-18" d="M344.27,1501.08c-.18-.02-.35-.04-.52-.06.17.02.34.04.52.06Z"/>
    <path class="cls-18" d="M338.92,1500.33c.09.02.19.03.28.04-.09-.02-.19-.03-.28-.04h0Z"/>
    <path class="cls-18" d="M342.47,1500.85c-.18-.02-.36-.05-.54-.08.18.02.35.05.54.08Z"/>
    <path class="cls-18" d="M415.84,1474.51c.03-.43.04-.68.04-.68v-1.45c-.19.74-.38,1.48-.57,2.23.18-.04.36-.07.54-.1h0Z"/>
    <path class="cls-19" d="M311.91,1373.99c-.04-.35.07-.7.3-.98.23-.28.55-.45.9-.48.76-.06,1.38.47,1.45,1.2.07.73-.46,1.39-1.2,1.46h-.13c-.11,0-.21-.03-.32-.06-.41.45-.81.93-1.2,1.4v6.65c1.76-1.24,3.6-2.15,5.45-2.66v-39.29c-.8-21.5,6.66-34.49,6.66-34.49l15.24-30.8c1.13-2.31,1.93-4.51,2.52-6.51h20.13l.72-1.46c4.38-8.97,4.51-16.49,4.48-18.2h-26.28v.95s.11,1.76-.25,4.64c-.42,3.41-1.5,8.38-4.21,13.93l-17.02,34.41s-8.32,14.51-7.44,38.53v33.04c.17-.19.33-.39.49-.57-.15-.19-.27-.42-.3-.69h.01Z"/>
    <polygon class="cls-19" points="366.91 1243.91 366.91 1240.98 359.3 1240.98 340.64 1240.98 340.64 1243.91 366.91 1243.91"/>
    <path class="cls-19" d="M313.24,1374.35h.05c.27-.03.47-.27.44-.54-.02-.25-.23-.44-.49-.44-.18.02-.3.08-.38.18-.08.1-.12.23-.11.36.02.25.24.44.49.44h0Z"/>
    <path class="cls-19" d="M311.72,1384.21v3.06c.48.11.95.36,1.42.82,2.36,2.01-1.57,4.9-.68,7.77,1.59-.4,3.48-.5,4.71.08v-14.55c-1.86.54-3.7,1.51-5.45,2.83Z"/>
    <path class="cls-19" d="M311.72,1469.64v4.2s.19,9.15,5.11,16.39c.54-3.73,1.26-7.41,1.94-10.52-1.51-4.57-1.59-8.51-1.59-8.51v-69.84c-1.36,2.14-3.32,3.72-5.45,5.07,0,0,0,63.21,0,63.21Z"/>
    <path class="cls-19" d="M320.38,1483.59c-.15-.3-.3-.6-.44-.9-.16,1.01-.33,2.01-.51,2.98.31-.71.63-1.41.95-2.09h0Z"/>
    <path class="cls-19" d="M327.31,1491.2c0,.86-.2,1.75-.51,2.64.19-.11.39-.2.61-.22,1.49-.16,1.31,1.62,1.44,2.7.38-.94,1.07-2.35,1.99-3.55-1.29-.4-2.47-.93-3.53-1.55h0Z"/>
    <path class="cls-19" d="M320.65,1486.78c.46-.19.97-.29,1.49-.32-.29-.39-.55-.8-.81-1.2-.23.52-.46,1.02-.68,1.52h0Z"/>
    <path class="cls-19" d="M352.64,1499.01c2.24-1.53,3.91,1.11,5.89,1.31-.41-.78-.94-1.78-1.45-2.89-1.86-.23-3.53-.66-5.05-1.25-.09,0-.19-.01-.28-.02h0c-.65-.06-1.28-.11-1.9-.17h-.13c-5.57-.55-9.89-1.3-12.53-1.84-.25,1.76-1.24,3.67-1.83,4.78,1.11-.11,2.05-1.6,3.31-.73.82.56.58,1.38.25,2.14.09.01.19.03.28.04.36.06.72.11,1.09.17.16.02.33.05.5.08.38.06.76.11,1.15.16.18.02.35.05.54.08.41.06.84.11,1.26.16.17.02.34.04.52.06.48.06.97.11,1.47.17.14.02.28.03.42.05,1.76.19,3.66.37,5.67.52-.3-1.04-.27-2.06.82-2.81h0Z"/>
    <path class="cls-6" d="M359.52,1357.18c1.41-.11,2.83-.17,4.28-.17,9.32,0,17.89,2.43,24.73,6.51v-22.29c.8-21.5-6.66-34.49-6.66-34.49l-15.24-30.8c-1.13-2.31-1.94-4.51-2.52-6.51h-4.59v87.75h0Z"/>
    <path class="cls-6" d="M376.62,1456.84s5.45,9.03,10.25,19.9c-1.53-8.15-2.68-17.27-2.44-25.61,0,0,2.01,7.27,4.09,17.16v-53.32c-7.17,5.01-16.69,8.06-27.14,8.06-.62,0-1.24-.02-1.86-.04v62.15c4.27-.62,7.94,4.92,9.82,8.79.31-.06.61-.13.92-.19.15-1.58.55-3.08,2.41-2.88.37.04.73.17,1.06.36-1.33-3.8-1.36-7.65,1.24-10.56,2.23-2.49,6.65-3.21,9.72-1.96-3.12-6.81-6.31-14.73-8.07-21.86h0Z"/>
    <path class="cls-6" d="M353.86,1496.31c-.06,0-.11,0-.16-.01.06,0,.11,0,.16.01Z"/>
    <path class="cls-6" d="M355.79,1496.43c.12,0,.25.01.36.02-.12,0-.25-.01-.36-.02Z"/>
    <path class="cls-6" d="M349.85,1495.99h-.13s.09,0,.13,0Z"/>
    <path class="cls-15" d="M359.52,1422.99c-15.86-.55-29.33-8.14-35.26-18.8v67.01s.04,1.66.47,4.07c.29-.5.46-.78.46-.78-.11.43-.23.88-.35,1.32.87,4.42,3.07,10.94,8.59,14.76.65-.25,1.35-.28,2.07.02.97.41,1.46,1.1,1.66,1.9,1.28.47,2.69.81,4.24.99,0,0,5.65,1.49,14.86,2.42.06,0,.11-.01.17-.02-1.56-3.92-2.39-8.59,1.88-10.41.41-.17.82-.28,1.22-.34v-62.15h0Z"/>
    <path class="cls-15" d="M354.79,1496.37c.33.02.67.04,1.01.06.12,0,.25.01.36.02.17,0,.33.02.5.03h0c-.63-.03-1.26-.06-1.87-.1h0Z"/>
    <path class="cls-15" d="M353.86,1496.31c.29.02.59.04.9.06-.69-.04-1.36-.09-2.02-.14.01,0,.03,0,.04,0-7.06-.53-12.49-1.46-15.59-2.08h0c2.63.54,6.95,1.29,12.53,1.83h.13c.62.07,1.25.13,1.9.18h0c.09,0,.19.02.28.02.55.04,1.1.09,1.66.13.06,0,.11,0,.16.01h0Z"/>
    <path class="cls-15" d="M330.92,1306.73s-7.45,12.99-6.66,34.49v38.61c.54-.97,1.14-1.91,1.8-2.82,5.29-10.72,18.09-18.59,33.46-19.84v-87.75h-10.84c-.59,2-1.4,4.2-2.52,6.51l-15.24,30.8h0Z"/>
    <path class="cls-7" d="M400.94,1375.86v-33.65c.88-24.01-7.44-38.53-7.44-38.53l-16.95-34.26h-12.44c.58,2,1.4,4.2,2.52,6.51l15.24,30.8s7.46,12.99,6.66,34.49v22.29c5.39,3.22,9.7,7.46,12.41,12.35h0Z"/>
    <path class="cls-7" d="M386.01,1269.42h-.46l1.44,2.92c-.38-1.01-.71-1.99-.98-2.92h0Z"/>
    <path class="cls-7" d="M409.93,1342.21v107.42c.14-1.48.31-2.94.5-4.37v-104.03c.6-16.28-3.52-27.67-5.56-32.25,2.39,6.25,5.64,17.77,5.06,33.23Z"/>
    <path class="cls-7" d="M370.1,1495.65c.07-.57.09-1.25.16-1.91-.31.06-.61.13-.92.19.31.63.56,1.21.76,1.72h0Z"/>
    <path class="cls-7" d="M400.94,1400.17c-.54.98-1.15,1.93-1.82,2.86-2.28,4.6-5.93,8.68-10.59,11.94v53.32c1.38,6.52,2.78,14.19,3.66,21.67.26-2.78,2.42-6.2,5.26-6.51.65-.07,1.17,0,1.62.17,1.78-5.22,1.87-9.78,1.87-9.78v-73.67h0Z"/>
    <path class="cls-7" d="M352.73,1496.23c.66.05,1.34.1,2.02.14h.03c.61.04,1.24.07,1.87.1h0c-1.34-.07-2.64-.15-3.88-.24-.01,0-.03,0-.04,0h0Z"/>
    <path class="cls-7" d="M356.44,1495.93s-.01-.02-.02-.04c-.06,0-.11.01-.17.02.06,0,.12.01.18.02h0Z"/>
    <path class="cls-16" d="M341.38,1493.5c-1.55-.19-2.96-.53-4.24-.99.12.51.13,1.07.05,1.64,3.1.63,8.53,1.55,15.59,2.08,1.24.1,2.54.17,3.88.24-.08-.18-.15-.35-.22-.54-.06,0-.12-.01-.18-.02-9.22-.93-14.86-2.42-14.86-2.42h0Z"/>
    <path class="cls-16" d="M318.51,1381.32c.27,0,.5-.22.5-.49s-.22-.5-.5-.5-.5.22-.5.5.22.49.5.49Z"/>
    <path class="cls-16" d="M317.17,1471.2s.08,3.94,1.59,8.51c1.07-4.92,2.04-8.42,2.04-8.42.11,3.69-.27,7.65-.86,11.4.14.3.29.6.44.9,1.78-3.79,3.55-6.93,4.35-8.32-.44-2.41-.47-4.07-.47-4.07v-67.01c-2.08-3.74-3.23-7.86-3.23-12.18s1.15-8.44,3.23-12.18v-38.61c-.8-21.5,6.66-34.49,6.66-34.49l15.24-30.8c1.13-2.31,1.94-4.51,2.52-6.51h-7.09c-.59,2-1.4,4.2-2.52,6.51l-15.24,30.8s-7.46,12.99-6.66,34.49v39.29s.03-.01.05-.02c.15-.57.67-1,1.29-1,.74,0,1.33.6,1.33,1.33s-.59,1.34-1.33,1.34c-.55,0-1.02-.33-1.22-.81-.04.01-.08.02-.11.03v14.55c1.28.59,1.85,1.91.61,4.39-.18.37-.4.7-.61,1.04v69.84h0Z"/>
    <path class="cls-16" d="M324.84,1475.82c-.88,3.12-2.17,6.42-3.5,9.44.25.4.52.81.81,1.2,1.46-.1,3.05.39,3.97,1.42.86.96,1.21,2.11,1.2,3.32,1.06.63,2.24,1.15,3.53,1.55.74-.98,1.62-1.82,2.58-2.18-5.52-3.81-7.71-10.35-8.59-14.76h0Z"/>
    <rect class="cls-21" x="359.3" y="1230.08" width="16.9" height="7.97"/>
    <path class="cls-14" d="M390.07,1238.05v-2.71c0-2.91-2.36-5.26-5.26-5.26h-8.61v7.97h13.87Z"/>
    <path class="cls-5" d="M337.53,1235.35c0-.31.03-.6.08-.89-.05.29-.08.59-.08.89Z"/>
    <path class="cls-5" d="M338.3,1232.62c.15-.25.32-.48.5-.7-.19.22-.35.45-.5.7Z"/>
    <path class="cls-3" d="M338.81,1231.91c.79-.92,1.9-1.56,3.15-1.76v7.89h17.34v-7.97h-16.51c-1.59,0-3.02.71-3.99,1.83h0Z"/>
    <path class="cls-5" d="M337.89,1233.44c.1-.26.22-.51.36-.75-.14.24-.26.49-.36.75Z"/>
    <path class="cls-5" d="M337.63,1234.36c.06-.28.13-.55.23-.81-.1.26-.17.53-.23.81Z"/>
    <path class="cls-2" d="M359.3,1238.05h-17.34v-7.89c-1.25.2-2.36.84-3.15,1.76,0,0,0,0,0,0-.19.22-.35.45-.5.7-.02.02-.03.05-.04.08-.14.24-.26.49-.36.75-.02.04-.03.07-.04.11-.1.26-.17.53-.23.81,0,.03,0,.06-.02.1-.05.29-.08.59-.08.89v5.63h52.54v-2.93h-30.77,0Z"/>
    <rect class="cls-4" x="372.02" y="1240.98" width="8.99" height="2.93"/>
    <polygon class="cls-21" points="372.02 1243.91 366.91 1243.91 340.64 1243.91 339.01 1243.91 339.01 1249.76 340.64 1249.76 366.92 1249.76 372.02 1249.76 381.01 1249.76 386.96 1249.76 388.58 1249.76 388.58 1243.91 386.96 1243.91 381.01 1243.91 372.02 1243.91"/>
    <path class="cls-4" d="M362.78,1375.64c-.97,0-1.75.96-1.75,2.14s.78,2.14,1.75,2.14,1.75-.96,1.75-2.14-.78-2.14-1.75-2.14Z"/>
    <path class="cls-17" d="M312.86,1373.54c.08-.1.21-.16.38-.18.26,0,.46.19.49.44.03.27-.17.51-.44.54h-.05c-.25,0-.46-.19-.49-.44-.01-.13.02-.26.11-.36h0Z"/>
    <path class="cls-17" d="M318.51,1380.33c.27,0,.5.22.5.5s-.22.49-.5.49-.5-.22-.5-.49.22-.5.5-.5Z"/>
    <polygon class="cls-19" points="311.72 1366.78 311.72 1417.25 317.17 1418.3 317.17 1365.48 311.72 1366.78"/>
    <polygon class="cls-16" points="317.17 1372.14 317.17 1418.3 321.34 1416.84 319.94 1364.67 317.17 1372.14"/>
    <polygon class="cls-16" points="324.27 1373.36 324.27 1413.84 320.38 1409.94 319.91 1367.54 324.27 1373.36"/>
    <polygon class="cls-15" points="359.52 1350.69 359.52 1440.79 324.27 1440.79 324.27 1345.32 359.52 1350.69"/>
    <polygon class="cls-6" points="359.52 1334.18 388.29 1352.4 388.29 1433.58 359.52 1435.78 359.52 1334.18"/>
    <polygon class="cls-7" points="388.53 1348.49 400.94 1350.93 400.94 1417.25 387.77 1420.18 388.53 1348.49"/>
    <g>
      <path class="cls-1" d="M329.17,1357.69v-8.71h2.29v.65c.31-.27.66-.47,1.03-.61.38-.14.79-.21,1.24-.21.56,0,1.06.11,1.51.34.45.23.82.55,1.11.96.34-.42.76-.75,1.25-.97.49-.22,1.03-.33,1.62-.33.97,0,1.76.33,2.39.97.62.65.94,1.47.94,2.49v5.41h-2.29v-5.08c0-.55-.15-.99-.44-1.32-.29-.33-.69-.5-1.19-.5-.34,0-.66.08-.94.23s-.53.36-.73.64c.01.1.02.2.03.3.01.1.02.21.02.32v5.41h-2.29v-5.08c0-.55-.15-.99-.44-1.32-.29-.33-.69-.5-1.19-.5-.34,0-.65.07-.92.2s-.5.33-.7.59v6.12h-2.29,0Z"/>
      <path class="cls-1" d="M345.45,1347.95c-.36,0-.66-.13-.92-.38-.26-.26-.38-.56-.38-.92s.13-.66.38-.92.56-.38.92-.38.66.13.92.38c.26.26.38.56.38.92s-.13.66-.38.92-.56.38-.92.38ZM346.61,1348.98v8.71h-2.29v-8.71h2.29Z"/>
      <path class="cls-1" d="M350.68,1345.49v12.2h-2.29v-11.7l2.29-.5h0Z"/>
      <path class="cls-1" d="M352.47,1357.69v-11.7l2.29-.5v7.17l3.76-3.68h2.59l-4.08,4,4.33,4.71h-2.93l-3.68-3.98v3.98h-2.29Z"/>
      <path class="cls-1" d="M372.37,1355.23v-4.33h-1.79v-1.92h1.79v-2.22l2.29-.52v2.74h2.47v1.92h-2.47v3.86c0,.41.09.7.27.87s.49.25.94.25c.21,0,.41-.01.6-.04.19-.03.4-.08.62-.16v1.87c-.25.08-.54.14-.88.19-.34.05-.64.08-.88.08-.97,0-1.7-.22-2.2-.66-.5-.44-.75-1.08-.75-1.93h0Z"/>
      <path class="cls-1" d="M377.79,1353.35c0-.63.12-1.23.36-1.78.24-.55.57-1.03.99-1.44.42-.41.91-.73,1.48-.96s1.18-.35,1.82-.35,1.25.12,1.82.35,1.06.55,1.48.96c.42.41.75.88.99,1.44.24.55.36,1.15.36,1.78s-.12,1.23-.36,1.78c-.24.55-.57,1.03-.99,1.43-.42.4-.91.72-1.48.95-.57.23-1.18.35-1.82.35s-1.25-.12-1.82-.35c-.57-.23-1.06-.55-1.48-.95-.42-.4-.75-.88-.99-1.43-.24-.55-.36-1.15-.36-1.78ZM382.43,1355.87c.67,0,1.24-.25,1.7-.74s.7-1.09.7-1.79-.23-1.32-.7-1.8c-.47-.49-1.03-.74-1.7-.74s-1.24.25-1.7.74c-.47.49-.7,1.09-.7,1.8s.23,1.3.7,1.79c.47.49,1.03.74,1.7.74h0Z"/>
      <path class="cls-1" d="M390.99,1357.69l-3.74-8.71h2.49l2.39,5.8,2.37-5.8h2.44l-3.74,8.71h-2.21Z"/>
      <path class="cls-1" d="M364.89,1348.53s-.04,0-.06.02c0,0,.01,0,.02,0,.02,0,.03,0,.04,0h0Z"/>
      <path class="cls-1" d="M364.89,1348.53s-.04,0-.06.02c0,0,.01,0,.02,0,.02,0,.03,0,.04,0h0Z"/>
      <path class="cls-10" d="M370.33,1352.39c-.09-.48-.25-.93-.47-1.35-.34-.64-.82-1.2-1.4-1.63-.28.32-.44.74-.44,1.2,0,.16.02.31.06.46-.29-.13-.54-.34-.73-.59-.26-.34-.41-.76-.41-1.21h0s0-.23.02-.32c.02-.09.02-.18.03-.27v-.07c0-.78-.45-1.46-1.1-1.79-.28.83-.42,1.29-1.47,1.89-.3.16-.55.39-.74.67-.1.15-.18.32-.24.5-.06.19-.1.4-.1.61,0,.5.18.95.48,1.3-.18.1-.4.15-.62.15-.73,0-1.32-.59-1.32-1.32,0-.16.03-.31.08-.46-.72.84-1.15,1.93-1.15,3.12,0,2.65,2.14,4.79,4.79,4.79s4.79-2.14,4.79-4.79c0-.3-.03-.59-.08-.87h0Z"/>
    </g>
  </g>
  <g>
    <path class="cls-12" d="M518.56,1283.21c-.13-.15-.26-.31-.39-.46l.29.6s.06-.09.09-.13h0Z"/>
    <path class="cls-8" d="M548.62,1342.62c0,.1.01.19.02.29,0-.1,0-.19-.02-.29Z"/>
    <path class="cls-8" d="M548.5,1341.66c.01.06.02.11.02.17,0-.06-.02-.11-.02-.17Z"/>
    <path class="cls-8" d="M547.23,1338.68c.07.1.13.19.2.29-.06-.1-.13-.19-.2-.29Z"/>
    <path class="cls-8" d="M546.61,1337.92c.08.09.16.19.25.29-.08-.1-.16-.19-.25-.29Z"/>
    <path class="cls-8" d="M548.46,1344.84c-.02.09-.04.18-.06.27.02-.09.04-.18.06-.27Z"/>
    <path class="cls-8" d="M547.8,1339.63c.04.08.08.17.12.26-.04-.09-.08-.17-.12-.26Z"/>
    <path class="cls-8" d="M548.18,1340.53c.04.1.07.2.1.3-.03-.1-.06-.2-.1-.3Z"/>
    <path class="cls-8" d="M548.62,1343.84s0,.06-.01.08c0-.03,0-.06.01-.08Z"/>
    <path class="cls-8" d="M545.81,1337.17c.1.08.19.16.29.25-.1-.08-.19-.16-.29-.25Z"/>
    <path class="cls-8" d="M545.03,1336.61c.11.07.22.15.33.22-.11-.08-.22-.15-.33-.22Z"/>
    <path class="cls-11" d="M517.31,1240.23c.09-.1.18-.21.27-.31-.09.1-.18.21-.27.31Z"/>
    <path class="cls-11" d="M513.66,1247.26c.02-.06.04-.13.05-.19-.02.06-.04.12-.05.19Z"/>
    <path class="cls-11" d="M514.44,1257.05s-.02-.04-.02-.06c0,.02.02.04.02.06Z"/>
    <path class="cls-11" d="M513.24,1252.23c0-.11-.02-.23-.02-.34,0,.11.02.23.02.34Z"/>
    <path class="cls-11" d="M514.01,1255.94c-.04-.11-.07-.22-.11-.33.04.11.07.22.11.33Z"/>
    <path class="cls-11" d="M513.65,1254.74c-.02-.09-.05-.18-.07-.27.02.09.05.18.07.27Z"/>
    <path class="cls-11" d="M513.39,1248.61c.02-.11.04-.22.06-.33-.02.11-.04.22-.06.33Z"/>
    <path class="cls-11" d="M513.25,1249.71c0-.11.02-.21.04-.33-.01.11-.02.21-.04.33Z"/>
    <path class="cls-11" d="M513.37,1253.36c-.01-.08-.02-.17-.03-.25.01.08.02.17.03.25Z"/>
    <path class="cls-11" d="M515.83,1259.6c-.06-.1-.12-.19-.18-.28.06.1.12.19.18.28Z"/>
    <path class="cls-11" d="M515.14,1258.47c-.06-.1-.11-.2-.17-.31.06.1.11.21.17.31Z"/>
    <path class="cls-11" d="M516.74,1260.85c-.05-.06-.1-.11-.14-.17.04.06.1.11.14.17Z"/>
    <path class="cls-11" d="M521.68,1265.39c-.13-.09-.26-.18-.38-.27.13.09.25.18.38.27Z"/>
    <path class="cls-11" d="M520.29,1264.36c-.1-.08-.21-.16-.31-.25.1.08.21.17.31.25Z"/>
    <path class="cls-11" d="M517.78,1262.06c-.1-.1-.19-.2-.28-.31.09.1.19.21.28.31Z"/>
    <path class="cls-11" d="M518.83,1263.11c-.07-.06-.13-.13-.2-.19.07.06.13.13.2.19Z"/>
    <path class="cls-11" d="M516.66,1241.03c.08-.11.17-.21.25-.32-.08.11-.17.21-.25.32Z"/>
    <path class="cls-11" d="M514.86,1243.96c.05-.1.11-.2.15-.31-.05.1-.11.2-.15.31Z"/>
    <path class="cls-11" d="M514.33,1245.17c.04-.1.08-.2.12-.3-.04.1-.08.2-.12.3Z"/>
    <path class="cls-11" d="M515.35,1243.03c.07-.11.13-.23.2-.35-.07.11-.13.23-.2.35Z"/>
    <path class="cls-11" d="M515.94,1242.05c.06-.09.11-.18.17-.27-.06.09-.11.18-.17.27Z"/>
    <path class="cls-11" d="M513.95,1246.23c.04-.12.08-.23.12-.35-.04.12-.08.23-.12.35Z"/>
    <polygon class="cls-18" points="488.2 1243.42 488.2 1246.34 493.31 1246.34 493.31 1243.42 502.3 1243.42 502.3 1246.34 508.25 1246.34 508.25 1243.42 497.49 1243.42 488.2 1243.42"/>
    <path class="cls-18" d="M502.3,1253.15s-.54,8.34,4.46,18.57l.07.14h.46c.27.93.6,1.91.98,2.92l15.5,31.34s1.05,1.85,2.37,5.3c2.04,4.58,6.16,15.97,5.56,32.25v104.03c.2-1.52.43-3.02.69-4.47,0,0,1.6,13.07,1.5,27.89.94-3.91,2.03-7.96,3.26-11.99v-114.48c.08-2.3.08-4.51.02-6.64-.05-1.57-.14-3.07-.26-4.53-.06-.78-.14-1.54-.22-2.29-.84-7.79-2.53-13.97-4.04-18.25-1.57-4.43-2.93-6.81-2.93-6.81l-.68-1.37-7.68-15.53-2.91-5.87-.29-.6-2.79-5.63-2.68-5.41c-4.99-10.23-4.46-18.57-4.46-18.57v-.95h-5.95v.95h0Z"/>
    <path class="cls-18" d="M497.84,1271.86l-.07-.14c-4.99-10.23-4.46-18.57-4.46-18.57v-.95h-5.1c.04,1.71-.1,9.23-4.48,18.2l-.72,1.46h14.82Z"/>
    <path class="cls-18" d="M467.44,1503.74c-.14-.02-.28-.03-.42-.05.14.02.28.03.42.05Z"/>
    <path class="cls-18" d="M477.08,1498.86c-.34-.02-.67-.04-1.01-.06h-.03c-.3-.02-.6-.04-.9-.06-.06,0-.11,0-.16-.01-.56-.04-1.12-.08-1.66-.13,1.51.59,3.19,1.02,5.05,1.25-.14-.31-.28-.63-.42-.95-.17,0-.33-.02-.5-.03-.12,0-.25-.01-.36-.02h0Z"/>
    <path class="cls-18" d="M462.08,1503.05c-.17-.02-.33-.05-.5-.08.16.02.33.05.5.08Z"/>
    <path class="cls-18" d="M465.56,1503.52c-.18-.02-.35-.04-.52-.06.17.02.34.04.52.06Z"/>
    <path class="cls-18" d="M460.21,1502.77c.09.02.19.03.28.04-.09-.02-.19-.03-.28-.04h0Z"/>
    <path class="cls-18" d="M463.77,1503.29c-.18-.02-.36-.05-.54-.08.18.02.35.05.54.08Z"/>
    <path class="cls-18" d="M537.13,1476.95c.03-.43.04-.68.04-.68v-1.45c-.19.74-.38,1.48-.57,2.23.18-.04.36-.07.54-.1h0Z"/>
    <path class="cls-19" d="M433.21,1376.42c-.04-.35.07-.7.3-.98.23-.28.55-.45.9-.48.76-.06,1.38.47,1.45,1.2.07.73-.46,1.39-1.2,1.46h-.13c-.11,0-.21-.03-.32-.06-.41.45-.81.93-1.2,1.4v6.65c1.76-1.24,3.6-2.15,5.45-2.66v-39.29c-.8-21.5,6.66-34.49,6.66-34.49l15.24-30.8c1.13-2.31,1.93-4.51,2.52-6.51h20.13l.72-1.46c4.38-8.97,4.51-16.49,4.48-18.2h-26.28v.95s.11,1.76-.25,4.64c-.42,3.41-1.5,8.38-4.21,13.93l-17.02,34.41s-8.32,14.51-7.44,38.53v33.04c.17-.19.33-.39.49-.57-.15-.19-.27-.42-.3-.69h.01Z"/>
    <polygon class="cls-19" points="488.2 1246.34 488.2 1243.42 480.59 1243.42 461.93 1243.42 461.93 1246.34 488.2 1246.34"/>
    <path class="cls-19" d="M434.53,1376.79h.05c.27-.03.47-.27.44-.54-.02-.25-.23-.44-.49-.44-.18.02-.3.08-.38.18-.08.1-.12.23-.11.36.02.25.24.44.49.44h0Z"/>
    <path class="cls-19" d="M433.01,1386.65v3.06c.48.11.95.36,1.42.82,2.36,2.01-1.57,4.9-.68,7.77,1.59-.4,3.48-.5,4.71.08v-14.55c-1.86.54-3.7,1.51-5.45,2.83Z"/>
    <path class="cls-19" d="M433.01,1472.08v4.2s.19,9.15,5.11,16.39c.54-3.73,1.26-7.41,1.94-10.52-1.51-4.57-1.59-8.51-1.59-8.51v-69.84c-1.36,2.14-3.32,3.72-5.45,5.07,0,0,0,63.21,0,63.21Z"/>
    <path class="cls-19" d="M441.67,1486.03c-.15-.3-.3-.6-.44-.9-.16,1.01-.33,2.01-.51,2.98.31-.71.63-1.41.95-2.09h0Z"/>
    <path class="cls-19" d="M448.6,1493.64c0,.86-.2,1.75-.51,2.64.19-.11.39-.2.61-.22,1.49-.16,1.31,1.62,1.44,2.7.38-.94,1.07-2.35,1.99-3.55-1.29-.4-2.47-.93-3.53-1.55h0Z"/>
    <path class="cls-19" d="M441.95,1489.22c.46-.19.97-.29,1.49-.32-.29-.39-.55-.8-.81-1.2-.23.52-.46,1.02-.68,1.52h0Z"/>
    <path class="cls-19" d="M473.93,1501.44c2.24-1.53,3.91,1.11,5.89,1.31-.41-.78-.94-1.78-1.45-2.89-1.86-.23-3.53-.66-5.05-1.25-.09,0-.19-.01-.28-.02h0c-.65-.06-1.28-.11-1.9-.17h-.13c-5.57-.55-9.89-1.3-12.53-1.84-.25,1.76-1.24,3.67-1.83,4.78,1.11-.11,2.05-1.6,3.31-.73.82.56.58,1.38.25,2.14.09.01.19.03.28.04.36.06.72.11,1.09.17.16.02.33.05.5.08.38.06.76.11,1.15.16.18.02.35.05.54.08.41.06.84.11,1.26.16.17.02.34.04.52.06.48.06.97.11,1.47.17.14.02.28.03.42.05,1.76.19,3.66.37,5.67.52-.3-1.04-.27-2.06.82-2.81h0Z"/>
    <path class="cls-6" d="M480.81,1359.61c1.41-.11,2.83-.17,4.28-.17,9.32,0,17.89,2.43,24.73,6.51v-22.29c.8-21.5-6.66-34.49-6.66-34.49l-15.24-30.8c-1.13-2.31-1.94-4.51-2.52-6.51h-4.59v87.75h0Z"/>
    <path class="cls-6" d="M497.91,1459.27s5.45,9.03,10.25,19.9c-1.53-8.15-2.68-17.27-2.44-25.61,0,0,2.01,7.27,4.09,17.16v-53.32c-7.17,5.01-16.69,8.06-27.14,8.06-.62,0-1.24-.02-1.86-.04v62.15c4.27-.62,7.94,4.92,9.82,8.79.31-.06.61-.13.92-.19.15-1.58.55-3.08,2.41-2.88.37.04.73.17,1.06.36-1.33-3.8-1.36-7.65,1.24-10.56,2.23-2.49,6.65-3.21,9.72-1.96-3.12-6.81-6.31-14.73-8.07-21.86h0Z"/>
    <path class="cls-6" d="M475.15,1498.75c-.06,0-.11,0-.16-.01.06,0,.11,0,.16.01Z"/>
    <path class="cls-6" d="M477.08,1498.86c.12,0,.25.01.36.02-.12,0-.25-.01-.36-.02Z"/>
    <path class="cls-6" d="M471.14,1498.42h-.13s.09,0,.13,0Z"/>
    <path class="cls-15" d="M480.81,1425.43c-15.86-.55-29.33-8.14-35.26-18.8v67.01s.04,1.66.47,4.07c.29-.5.46-.78.46-.78-.11.43-.23.88-.35,1.32.87,4.42,3.07,10.94,8.59,14.76.65-.25,1.35-.28,2.07.02.97.41,1.46,1.1,1.66,1.9,1.28.47,2.69.81,4.24.99,0,0,5.65,1.49,14.86,2.42.06,0,.11-.01.17-.02-1.56-3.92-2.39-8.59,1.88-10.41.41-.17.82-.28,1.22-.34v-62.15h0Z"/>
    <path class="cls-15" d="M476.08,1498.81c.33.02.67.04,1.01.06.12,0,.25.01.36.02.17,0,.33.02.5.03h0c-.63-.03-1.26-.06-1.87-.1h0Z"/>
    <path class="cls-15" d="M475.15,1498.75c.29.02.59.04.9.06-.69-.04-1.36-.09-2.02-.14.01,0,.03,0,.04,0-7.06-.53-12.49-1.46-15.59-2.08h0c2.63.54,6.95,1.29,12.53,1.83h.13c.62.07,1.25.13,1.9.18h0c.09,0,.19.02.28.02.55.04,1.1.09,1.66.13.06,0,.11,0,.16.01h0Z"/>
    <path class="cls-15" d="M452.21,1309.17s-7.45,12.99-6.66,34.49v38.61c.54-.97,1.14-1.91,1.8-2.82,5.29-10.72,18.09-18.59,33.46-19.84v-87.75h-10.84c-.59,2-1.4,4.2-2.52,6.51l-15.24,30.8h0Z"/>
    <path class="cls-7" d="M522.23,1378.3v-33.65c.88-24.01-7.44-38.53-7.44-38.53l-16.95-34.26h-12.44c.58,2,1.4,4.2,2.52,6.51l15.24,30.8s7.46,12.99,6.66,34.49v22.29c5.39,3.22,9.7,7.46,12.41,12.35h0Z"/>
    <path class="cls-7" d="M507.3,1271.86h-.46l1.44,2.92c-.38-1.01-.71-1.99-.98-2.92h0Z"/>
    <path class="cls-7" d="M531.22,1344.64v107.42c.14-1.48.31-2.94.5-4.37v-104.03c.6-16.28-3.52-27.67-5.56-32.25,2.39,6.25,5.64,17.77,5.06,33.23Z"/>
    <path class="cls-7" d="M491.39,1498.08c.07-.57.09-1.25.16-1.91-.31.06-.61.13-.92.19.31.63.56,1.21.76,1.72h0Z"/>
    <path class="cls-7" d="M522.23,1402.61c-.54.98-1.15,1.93-1.82,2.86-2.28,4.6-5.93,8.68-10.59,11.94v53.32c1.38,6.52,2.78,14.19,3.66,21.67.26-2.78,2.42-6.2,5.26-6.51.65-.07,1.17,0,1.62.17,1.78-5.22,1.87-9.78,1.87-9.78v-73.67h0Z"/>
    <path class="cls-7" d="M474.02,1498.67c.66.05,1.34.1,2.02.14h.03c.61.04,1.24.07,1.87.1h0c-1.34-.07-2.64-.15-3.88-.24-.01,0-.03,0-.04,0h0Z"/>
    <path class="cls-7" d="M477.73,1498.37s-.01-.02-.02-.04c-.06,0-.11.01-.17.02.06,0,.12.01.18.02h0Z"/>
    <path class="cls-16" d="M462.68,1495.93c-1.55-.19-2.96-.53-4.24-.99.12.51.13,1.07.05,1.64,3.1.63,8.53,1.55,15.59,2.08,1.24.1,2.54.17,3.88.24-.08-.18-.15-.35-.22-.54-.06,0-.12-.01-.18-.02-9.22-.93-14.86-2.42-14.86-2.42h0Z"/>
    <path class="cls-16" d="M439.8,1383.75c.27,0,.5-.22.5-.49s-.22-.5-.5-.5-.5.22-.5.5.22.49.5.49Z"/>
    <path class="cls-16" d="M438.46,1473.64s.08,3.94,1.59,8.51c1.07-4.92,2.04-8.42,2.04-8.42.11,3.69-.27,7.65-.86,11.4.14.3.29.6.44.9,1.78-3.79,3.55-6.93,4.35-8.32-.44-2.41-.47-4.07-.47-4.07v-67.01c-2.08-3.74-3.23-7.86-3.23-12.18s1.15-8.44,3.23-12.18v-38.61c-.8-21.5,6.66-34.49,6.66-34.49l15.24-30.8c1.13-2.31,1.94-4.51,2.52-6.51h-7.09c-.59,2-1.4,4.2-2.52,6.51l-15.24,30.8s-7.46,12.99-6.66,34.49v39.29s.03-.01.05-.02c.15-.57.67-1,1.29-1,.74,0,1.33.6,1.33,1.33s-.59,1.34-1.33,1.34c-.55,0-1.02-.33-1.22-.81-.04.01-.08.02-.11.03v14.55c1.28.59,1.85,1.91.61,4.39-.18.37-.4.7-.61,1.04v69.84h0Z"/>
    <path class="cls-16" d="M446.13,1478.25c-.88,3.12-2.17,6.42-3.5,9.44.25.4.52.81.81,1.2,1.46-.1,3.05.39,3.97,1.42.86.96,1.21,2.11,1.2,3.32,1.06.63,2.24,1.15,3.53,1.55.74-.98,1.62-1.82,2.58-2.18-5.52-3.81-7.71-10.35-8.59-14.76h0Z"/>
    <rect class="cls-21" x="480.59" y="1232.52" width="16.9" height="7.97"/>
    <path class="cls-14" d="M511.36,1240.49v-2.71c0-2.91-2.36-5.26-5.26-5.26h-8.61v7.97h13.87Z"/>
    <path class="cls-5" d="M458.82,1237.78c0-.31.03-.6.08-.89-.05.29-.08.59-.08.89Z"/>
    <path class="cls-5" d="M459.59,1235.06c.15-.25.32-.48.5-.7-.19.22-.35.45-.5.7Z"/>
    <path class="cls-3" d="M460.1,1234.35c.79-.92,1.9-1.56,3.15-1.76v7.89h17.34v-7.97h-16.51c-1.59,0-3.02.71-3.99,1.83h0Z"/>
    <path class="cls-5" d="M459.18,1235.88c.1-.26.22-.51.36-.75-.14.24-.26.49-.36.75Z"/>
    <path class="cls-5" d="M458.92,1236.79c.06-.28.13-.55.23-.81-.1.26-.17.53-.23.81Z"/>
    <path class="cls-2" d="M480.59,1240.49h-17.34v-7.89c-1.25.2-2.36.84-3.15,1.76,0,0,0,0,0,0-.19.22-.35.45-.5.7-.02.02-.03.05-.04.08-.14.24-.26.49-.36.75-.02.04-.03.07-.04.11-.1.26-.17.53-.23.81,0,.03,0,.06-.02.1-.05.29-.08.59-.08.89v5.63h52.54v-2.93h-30.77,0Z"/>
    <rect class="cls-4" x="493.31" y="1243.42" width="8.99" height="2.93"/>
    <polygon class="cls-21" points="493.31 1246.34 488.2 1246.34 461.93 1246.34 460.31 1246.34 460.31 1252.2 461.93 1252.2 488.21 1252.2 493.31 1252.2 502.3 1252.2 508.25 1252.2 509.88 1252.2 509.88 1246.34 508.25 1246.34 502.3 1246.34 493.31 1246.34"/>
    <path class="cls-4" d="M484.07,1378.08c-.97,0-1.75.96-1.75,2.14s.78,2.14,1.75,2.14,1.75-.96,1.75-2.14-.78-2.14-1.75-2.14Z"/>
    <path class="cls-17" d="M434.15,1375.98c.08-.1.21-.16.38-.18.26,0,.46.19.49.44.03.27-.17.51-.44.54h-.05c-.25,0-.46-.19-.49-.44-.01-.13.02-.26.11-.36h0Z"/>
    <path class="cls-17" d="M439.8,1382.77c.27,0,.5.22.5.5s-.22.49-.5.49-.5-.22-.5-.49.22-.5.5-.5Z"/>
    <polygon class="cls-19" points="433.01 1369.22 433.01 1419.68 438.46 1420.74 438.46 1367.92 433.01 1369.22"/>
    <polygon class="cls-16" points="438.46 1374.58 438.46 1420.74 442.63 1419.28 441.23 1367.1 438.46 1374.58"/>
    <polygon class="cls-16" points="445.56 1375.8 445.56 1416.27 441.67 1412.37 441.2 1369.97 445.56 1375.8"/>
    <polygon class="cls-15" points="480.81 1353.12 480.81 1443.23 445.56 1443.23 445.56 1347.76 480.81 1353.12"/>
    <polygon class="cls-6" points="480.81 1336.61 509.58 1354.83 509.58 1436.02 480.81 1438.22 480.81 1336.61"/>
    <polygon class="cls-7" points="509.82 1350.93 522.23 1353.37 522.23 1419.69 509.06 1422.61 509.82 1350.93"/>
    <g>
      <path class="cls-1" d="M450.46,1360.13v-8.71h2.29v.65c.31-.27.66-.47,1.03-.61.38-.14.79-.21,1.24-.21.56,0,1.06.11,1.51.34.45.23.82.55,1.11.96.34-.42.76-.75,1.25-.97.49-.22,1.03-.33,1.62-.33.97,0,1.76.33,2.39.97.62.65.94,1.47.94,2.49v5.41h-2.29v-5.08c0-.55-.15-.99-.44-1.32-.29-.33-.69-.5-1.19-.5-.34,0-.66.08-.94.23s-.53.36-.73.64c.01.1.02.2.03.3.01.1.02.21.02.32v5.41h-2.29v-5.08c0-.55-.15-.99-.44-1.32-.29-.33-.69-.5-1.19-.5-.34,0-.65.07-.92.2s-.5.33-.7.59v6.12h-2.29,0Z"/>
      <path class="cls-1" d="M466.74,1350.38c-.36,0-.66-.13-.92-.38-.26-.26-.38-.56-.38-.92s.13-.66.38-.92.56-.38.92-.38.66.13.92.38c.26.26.38.56.38.92s-.13.66-.38.92-.56.38-.92.38ZM467.9,1351.42v8.71h-2.29v-8.71h2.29Z"/>
      <path class="cls-1" d="M471.97,1347.93v12.2h-2.29v-11.7l2.29-.5h0Z"/>
      <path class="cls-1" d="M473.76,1360.13v-11.7l2.29-.5v7.17l3.76-3.68h2.59l-4.08,4,4.33,4.71h-2.93l-3.68-3.98v3.98h-2.29Z"/>
      <path class="cls-1" d="M493.66,1357.67v-4.33h-1.79v-1.92h1.79v-2.22l2.29-.52v2.74h2.47v1.92h-2.47v3.86c0,.41.09.7.27.87s.49.25.94.25c.21,0,.41-.01.6-.04.19-.03.4-.08.62-.16v1.87c-.25.08-.54.14-.88.19-.34.05-.64.08-.88.08-.97,0-1.7-.22-2.2-.66-.5-.44-.75-1.08-.75-1.93h0Z"/>
      <path class="cls-1" d="M499.08,1355.78c0-.63.12-1.23.36-1.78.24-.55.57-1.03.99-1.44.42-.41.91-.73,1.48-.96s1.18-.35,1.82-.35,1.25.12,1.82.35,1.06.55,1.48.96c.42.41.75.88.99,1.44.24.55.36,1.15.36,1.78s-.12,1.23-.36,1.78c-.24.55-.57,1.03-.99,1.43-.42.4-.91.72-1.48.95-.57.23-1.18.35-1.82.35s-1.25-.12-1.82-.35c-.57-.23-1.06-.55-1.48-.95-.42-.4-.75-.88-.99-1.43-.24-.55-.36-1.15-.36-1.78ZM503.72,1358.3c.67,0,1.24-.25,1.7-.74s.7-1.09.7-1.79-.23-1.32-.7-1.8c-.47-.49-1.03-.74-1.7-.74s-1.24.25-1.7.74c-.47.49-.7,1.09-.7,1.8s.23,1.3.7,1.79c.47.49,1.03.74,1.7.74h0Z"/>
      <path class="cls-1" d="M512.28,1360.13l-3.74-8.71h2.49l2.39,5.8,2.37-5.8h2.44l-3.74,8.71h-2.21Z"/>
      <path class="cls-1" d="M486.18,1350.96s-.04,0-.06.02c0,0,.01,0,.02,0,.02,0,.03,0,.04,0h0Z"/>
      <path class="cls-1" d="M486.18,1350.96s-.04,0-.06.02c0,0,.01,0,.02,0,.02,0,.03,0,.04,0h0Z"/>
      <path class="cls-10" d="M491.62,1354.83c-.09-.48-.25-.93-.47-1.35-.34-.64-.82-1.2-1.4-1.63-.28.32-.44.74-.44,1.2,0,.16.02.31.06.46-.29-.13-.54-.34-.73-.59-.26-.34-.41-.76-.41-1.21h0s0-.23.02-.32c.02-.09.02-.18.03-.27v-.07c0-.78-.45-1.46-1.1-1.79-.28.83-.42,1.29-1.47,1.89-.3.16-.55.39-.74.67-.1.15-.18.32-.24.5-.06.19-.1.4-.1.61,0,.5.18.95.48,1.3-.18.1-.4.15-.62.15-.73,0-1.32-.59-1.32-1.32,0-.16.03-.31.08-.46-.72.84-1.15,1.93-1.15,3.12,0,2.65,2.14,4.79,4.79,4.79s4.79-2.14,4.79-4.79c0-.3-.03-.59-.08-.87h0Z"/>
    </g>
  </g>
  <path class="cls-9" d="M1126.1,870.41c-12.51,0-22.69,10.18-22.69,22.69s10.18,22.69,22.69,22.69,22.68-10.18,22.68-22.69-10.18-22.69-22.68-22.69Z"/>
  <path class="cls-20" d="M1304.79,185.55c0-9.46-11.48-17.46-25.06-17.46h-661.98c-13.59,0-25.07,7.99-25.07,17.46v1291.26h712.11V185.55ZM1126.1,947.85c-30.2,0-54.76-24.56-54.76-54.75s24.56-54.75,54.76-54.75,54.74,24.56,54.74,54.75-24.56,54.75-54.74,54.75Z"/>
  <path class="cls-13" d="M1126.1,838.35c-30.2,0-54.76,24.56-54.76,54.75s24.56,54.75,54.76,54.75,54.74-24.56,54.74-54.75-24.56-54.75-54.74-54.75ZM1126.1,915.78c-12.51,0-22.69-10.18-22.69-22.69s10.18-22.69,22.69-22.69,22.68,10.18,22.68,22.69-10.18,22.69-22.68,22.69Z"/>
  <path class="cls-13" d="M1384.04,1476.81h-47.13s-.05-.02-.05-.05V185.55c0-27.3-25.62-49.52-57.12-49.52h-661.98c-31.5,0-57.14,22.22-57.14,49.52v1291.21s-.02.05-.05.05H90.2c-8.85,0-16.03,7.18-16.03,16.03h0c0,8.85,7.18,16.03,16.03,16.03h1294.34c9.09,0,16.42-7.57,16.02-16.75-.38-8.65-7.86-15.31-16.52-15.31ZM1304.79,1476.76s-.02.05-.05.05h-712s-.05-.02-.05-.05V185.55c0-9.46,11.48-17.46,25.07-17.46h661.98c13.58,0,25.06,7.99,25.06,17.46v1291.21Z"/>
</svg>