<?xml version="1.0" encoding="UTF-8"?>
<svg id="Layer_1" data-name="Layer 1" xmlns="http://www.w3.org/2000/svg" version="1.1" viewBox="0 0 24 24">
  <defs>
    <style>
      .cls-1 {
        fill: #fcfcfc;
        stroke-width: 0px;
      }
    </style>
  </defs>
  <path class="cls-1" d="M7.8,2h8.4c3.2,0,5.8,2.6,5.8,5.8v8.4c0,1.5-.6,3-1.7,4.1-1.1,1.1-2.6,1.7-4.1,1.7H7.8c-3.2,0-5.8-2.6-5.8-5.8V7.8c0-1.5.6-3,1.7-4.1,1.1-1.1,2.6-1.7,4.1-1.7ZM7.6,4c-1,0-1.9.4-2.5,1.1-.7.7-1.1,1.6-1.1,2.5v8.8c0,2,1.6,3.6,3.6,3.6h8.8c1,0,1.9-.4,2.5-1.1s1.1-1.6,1.1-2.5V7.6c0-2-1.6-3.6-3.6-3.6H7.6ZM17.2,5.5c.3,0,.6.1.9.4.2.2.4.6.4.9s-.1.6-.4.9c-.2.2-.6.4-.9.4s-.6-.1-.9-.4c-.2-.2-.4-.6-.4-.9s.1-.6.4-.9c.2-.2.6-.4.9-.4ZM12,7c1.3,0,2.6.5,3.5,1.5.9.9,1.5,2.2,1.5,3.5s-.5,2.6-1.5,3.5c-.9.9-2.2,1.5-3.5,1.5s-2.6-.5-3.5-1.5c-.9-.9-1.5-2.2-1.5-3.5s.5-2.6,1.5-3.5c.9-.9,2.2-1.5,3.5-1.5ZM12,9c-.8,0-1.6.3-2.1.9-.6.6-.9,1.3-.9,2.1s.3,1.6.9,2.1c.6.6,1.3.9,2.1.9s1.6-.3,2.1-.9.9-1.3.9-2.1-.3-1.6-.9-2.1c-.6-.6-1.3-.9-2.1-.9Z"/>
</svg>