<?xml version="1.0" encoding="UTF-8"?>
<svg id="_Layer_" data-name="&amp;lt;Layer&amp;gt;" xmlns="http://www.w3.org/2000/svg" viewBox="0 0 1500 1600">
  <defs>
    <style>
      .cls-1 {
        stroke: #222629;
      }

      .cls-1, .cls-2 {
        fill: none;
        stroke-linecap: round;
        stroke-linejoin: round;
        stroke-width: 40px;
      }

      .cls-2 {
        stroke: #fdb817;
      }
    </style>
  </defs>
  <path class="cls-1" d="M1181.88,665.9v-212.93c0-17.17-6.2-31.94-18.49-44.08l-265.43-262.1c-12.3-12.14-27.26-18.25-44.64-18.25H247.72c-55.57,0-100.82,44.67-100.82,99.55v1121.31c0,54.65,45.47,99.55,100.82,99.55h833.35c55.55,0,100.82-44.69,100.82-99.55v-130.26M865.81,128.53v235.74c0,48.25,39.84,87.61,88.72,87.61h168.63l58.73,1.09"/>
  <path class="cls-2" d="M1141.82,671.91h0c151.76,0,274.8,121.48,274.8,271.34s-123.04,271.33-274.8,271.33-274.79-121.48-274.79-271.33,123.04-271.34,274.79-271.34h0Z"/>
  <path class="cls-1" d="M771.22,668.65h-206.58M771.22,777.47h-283.97M771.22,886.28h-283.7M771.22,995.09h-455.25"/>
  <line class="cls-2" x1="771.22" y1="1109.63" x2="598.61" y2="1109.63"/>
  <path class="cls-2" d="M1216.78,869.32c0-40.85-33.54-73.96-74.9-73.96s-74.9,33.11-74.9,73.96,33.54,73.96,74.9,73.96c41.37-.2,75.07,32.75,75.27,73.6.2,40.85-33.17,74.12-74.54,74.32-41.37.2-75.07-32.75-75.27-73.6"/>
  <line class="cls-2" x1="1142.06" y1="768.2" x2="1142.06" y2="1118.64"/>
</svg>