<?xml version="1.0" encoding="UTF-8"?>
<svg id="Layer_1" data-name="Layer 1" xmlns="http://www.w3.org/2000/svg" version="1.1" viewBox="0 0 64 64">
  <defs>
    <style>
      .cls-1 {
        fill: #fcb616;
        stroke-width: 0px;
      }
    </style>
  </defs>
  <path class="cls-1" d="M56.32,31.77c-.45-2.47-1.27-4.81-2.41-6.97-1.74-3.32-4.21-6.19-7.2-8.4-1.43,1.66-2.29,3.82-2.29,6.19,0,.82.1,1.61.3,2.36-1.48-.7-2.77-1.76-3.76-3.05-1.33-1.74-2.12-3.91-2.12-6.26v-.04c-.06-.08.05-1.15.13-1.6.08-.46.13-.93.14-1.41,0-.12,0-.24,0-.36,0-4.04-2.32-7.53-5.69-9.23-1.43,4.29-2.15,6.65-7.6,9.73-1.54.81-2.84,2-3.8,3.44-.52.79-.94,1.65-1.23,2.57-.31.98-.48,2.04-.48,3.12,0,2.57.94,4.91,2.49,6.71-.95.51-2.04.79-3.19.79-3.77,0-6.82-3.06-6.82-6.82,0-.83.15-1.62.42-2.36-3.71,4.32-5.95,9.94-5.95,16.08,0,13.66,11.07,24.73,24.73,24.73s24.73-11.07,24.73-24.73c0-1.54-.14-3.04-.41-4.5Z"/>
</svg>