<?xml version="1.0" encoding="UTF-8"?>
<svg id="_Layer_" data-name="&amp;lt;Layer&amp;gt;" xmlns="http://www.w3.org/2000/svg" viewBox="0 0 1800 1600">
  <defs>
    <style>
      .cls-1 {
        fill: #fff;
      }

      .cls-2 {
        fill: #131313;
      }

      .cls-3 {
        fill: #fdb817;
      }

      .cls-4 {
        fill: #222629;
      }
    </style>
  </defs>
  <g>
    <rect class="cls-1" x="91.29" y="154.38" width="1410.76" height="1130.61" rx="169" ry="169"/>
    <path class="cls-2" d="M1373.13,1300.25H220.22c-38.37,0-74.54-15.04-101.84-42.34-27.3-27.3-42.34-63.47-42.34-101.84V283.3c0-38.37,15.04-74.54,42.34-101.84s63.47-42.34,101.84-42.34h1152.91c38.37,0,74.54,15.04,101.84,42.34,27.3,27.3,42.34,63.47,42.34,101.84v872.76c0,38.37-15.04,74.54-42.34,101.84-27.3,27.3-63.47,42.34-101.84,42.34ZM220.22,169.63c-62.68,0-113.67,50.99-113.67,113.67v872.76c0,62.68,50.99,113.67,113.67,113.67h1152.91c62.68,0,113.67-50.99,113.67-113.67V283.3c0-62.68-50.99-113.67-113.67-113.67H220.22Z"/>
  </g>
  <g>
    <g>
      <rect class="cls-3" x="552.51" y="474.93" width="195.32" height="195.32" rx="97.66" ry="97.66"/>
      <path class="cls-1" d="M650.17,683.6c-61.21,0-111.01-49.8-111.01-111.01s49.8-111.01,111.01-111.01,111.01,49.8,111.01,111.01-49.8,111.01-111.01,111.01ZM650.17,488.28c-46.49,0-84.31,37.82-84.31,84.31s37.82,84.31,84.31,84.31h0c46.49,0,84.31-37.82,84.31-84.31s-37.82-84.31-84.31-84.31Z"/>
    </g>
    <g>
      <rect class="cls-3" x="845.48" y="474.93" width="195.32" height="195.32" rx="97.66" ry="97.66"/>
      <path class="cls-1" d="M943.14,683.6c-61.21,0-111.01-49.8-111.01-111.01s49.8-111.01,111.01-111.01,111.01,49.8,111.01,111.01-49.8,111.01-111.01,111.01ZM943.14,488.28c-46.49,0-84.31,37.82-84.31,84.31s37.82,84.31,84.31,84.31,84.31-37.82,84.31-84.31-37.82-84.31-84.31-84.31Z"/>
    </g>
    <g>
      <rect class="cls-3" x="259.53" y="474.93" width="195.32" height="195.32" rx="97.66" ry="97.66"/>
      <path class="cls-1" d="M357.19,683.6c-61.21,0-111.01-49.8-111.01-111.01s49.8-111.01,111.01-111.01,111.01,49.8,111.01,111.01-49.8,111.01-111.01,111.01ZM357.19,488.28c-46.49,0-84.31,37.82-84.31,84.31s37.82,84.31,84.31,84.31h0c46.49,0,84.31-37.82,84.31-84.31s-37.82-84.31-84.31-84.31Z"/>
    </g>
    <g>
      <rect class="cls-3" x="1138.46" y="474.93" width="195.32" height="195.32" rx="97.66" ry="97.66"/>
      <path class="cls-1" d="M1236.12,683.6c-61.21,0-111.01-49.8-111.01-111.01s49.8-111.01,111.01-111.01,111.01,49.8,111.01,111.01-49.8,111.01-111.01,111.01ZM1236.12,488.28c-46.49,0-84.31,37.82-84.31,84.31s37.82,84.31,84.31,84.31h0c46.49,0,84.31-37.82,84.31-84.31s-37.82-84.31-84.31-84.31Z"/>
    </g>
    <g>
      <rect class="cls-2" x="552.51" y="731.03" width="195.32" height="195.32" rx="97.66" ry="97.66"/>
      <path class="cls-1" d="M650.17,939.7c-61.21,0-111.01-49.8-111.01-111.01s49.8-111.01,111.01-111.01,111.01,49.8,111.01,111.01-49.8,111.01-111.01,111.01ZM650.17,744.38c-46.49,0-84.31,37.82-84.31,84.31s37.82,84.31,84.31,84.31h0c46.49,0,84.31-37.82,84.31-84.31s-37.82-84.31-84.31-84.31Z"/>
    </g>
    <g>
      <rect class="cls-3" x="845.48" y="731.03" width="195.32" height="195.32" rx="97.66" ry="97.66"/>
      <path class="cls-1" d="M943.14,939.7c-61.21,0-111.01-49.8-111.01-111.01s49.8-111.01,111.01-111.01,111.01,49.8,111.01,111.01-49.8,111.01-111.01,111.01ZM943.14,744.38c-46.49,0-84.31,37.82-84.31,84.31s37.82,84.31,84.31,84.31,84.31-37.82,84.31-84.31-37.82-84.31-84.31-84.31Z"/>
    </g>
    <g>
      <rect class="cls-2" x="259.53" y="731.03" width="195.32" height="195.32" rx="97.66" ry="97.66"/>
      <path class="cls-1" d="M357.19,939.7c-61.21,0-111.01-49.8-111.01-111.01s49.8-111.01,111.01-111.01,111.01,49.8,111.01,111.01-49.8,111.01-111.01,111.01ZM357.19,744.38c-46.49,0-84.31,37.82-84.31,84.31s37.82,84.31,84.31,84.31h0c46.49,0,84.31-37.82,84.31-84.31s-37.82-84.31-84.31-84.31Z"/>
    </g>
    <g>
      <rect class="cls-3" x="1138.46" y="731.03" width="195.32" height="195.32" rx="97.66" ry="97.66"/>
      <path class="cls-1" d="M1236.12,939.7c-61.21,0-111.01-49.8-111.01-111.01s49.8-111.01,111.01-111.01,111.01,49.8,111.01,111.01-49.8,111.01-111.01,111.01ZM1236.12,744.38c-46.49,0-84.31,37.82-84.31,84.31s37.82,84.31,84.31,84.31h0c46.49,0,84.31-37.82,84.31-84.31s-37.82-84.31-84.31-84.31Z"/>
    </g>
    <g>
      <rect class="cls-2" x="552.12" y="990.56" width="195.32" height="195.32" rx="97.66" ry="97.66"/>
      <path class="cls-1" d="M649.78,1199.23c-61.21,0-111.01-49.8-111.01-111.01s49.8-111.01,111.01-111.01,111.01,49.8,111.01,111.01-49.8,111.01-111.01,111.01ZM649.78,1003.91c-46.49,0-84.31,37.82-84.31,84.31s37.82,84.31,84.31,84.31h0c46.49,0,84.31-37.82,84.31-84.31s-37.82-84.31-84.31-84.31Z"/>
    </g>
    <g>
      <rect class="cls-3" x="845.1" y="990.56" width="195.32" height="195.32" rx="97.66" ry="97.66"/>
      <path class="cls-1" d="M942.75,1199.23c-61.21,0-111.01-49.8-111.01-111.01s49.8-111.01,111.01-111.01,111.01,49.8,111.01,111.01-49.8,111.01-111.01,111.01ZM942.75,1003.91c-46.49,0-84.31,37.82-84.31,84.31s37.82,84.31,84.31,84.31h0c46.49,0,84.31-37.82,84.31-84.31s-37.82-84.31-84.31-84.31Z"/>
    </g>
    <g>
      <rect class="cls-3" x="259.14" y="990.56" width="195.32" height="195.32" rx="97.66" ry="97.66"/>
      <path class="cls-1" d="M356.8,1199.23c-61.21,0-111.01-49.8-111.01-111.01s49.8-111.01,111.01-111.01,111.01,49.8,111.01,111.01-49.8,111.01-111.01,111.01ZM356.8,1003.91c-46.49,0-84.31,37.82-84.31,84.31s37.82,84.31,84.31,84.31h0c46.49,0,84.31-37.82,84.31-84.31s-37.82-84.31-84.31-84.31Z"/>
    </g>
  </g>
  <g>
    <circle class="cls-1" cx="1416.01" cy="1208.42" r="303"/>
    <path class="cls-4" d="M1416.01,1526.69c-42.96,0-84.64-8.42-123.89-25.02-37.9-16.03-71.93-38.98-101.16-68.2-29.22-29.22-52.17-63.26-68.2-101.16-16.6-39.25-25.02-80.93-25.02-123.89s8.42-84.64,25.02-123.89c16.03-37.9,38.98-71.93,68.2-101.16,29.22-29.22,63.26-52.17,101.16-68.2,39.25-16.6,80.93-25.02,123.89-25.02s84.64,8.42,123.89,25.02c37.9,16.03,71.93,38.98,101.16,68.2,29.22,29.22,52.17,63.26,68.2,101.16,16.6,39.25,25.02,80.93,25.02,123.89s-8.42,84.64-25.02,123.89c-16.03,37.9-38.98,71.93-68.2,101.16-29.22,29.22-63.26,52.17-101.16,68.2-39.25,16.6-80.93,25.02-123.89,25.02ZM1416.01,920.68c-158.66,0-287.75,129.08-287.75,287.75s129.08,287.75,287.75,287.75,287.75-129.08,287.75-287.75-129.08-287.75-287.75-287.75Z"/>
  </g>
  <g>
    <path class="cls-2" d="M1598.87,1193.75h-166.84c-2.91,0-5.26-2.36-5.26-5.26v-166.84c0-11.84-9.69-21.53-21.53-21.53h0c-11.84,0-21.53,9.69-21.53,21.53v193.63h0c0,11.84,9.69,21.53,21.53,21.53h193.63c11.84,0,21.53-9.69,21.53-21.53h0c0-11.84-9.69-21.53-21.53-21.53Z"/>
    <path class="cls-2" d="M1405.24,1000.12c-11.84,0-21.53,9.69-21.53,21.53v193.63c0,11.84,9.69,21.53,21.53,21.53h193.63c11.84,0,21.53-9.69,21.53-21.53s-9.69-21.53-21.53-21.53h-166.84c-2.91,0-5.26-2.36-5.26-5.26v-166.84c0-11.84-9.69-21.53-21.53-21.53h0Z"/>
  </g>
  <g>
    <g>
      <rect class="cls-2" x="343.53" y="38.47" width="94.15" height="234.01" rx="47.07" ry="47.07"/>
      <path class="cls-1" d="M390.6,282.7c-31.59,0-57.3-25.7-57.3-57.3V85.54c0-31.59,25.7-57.3,57.3-57.3s57.3,25.7,57.3,57.3v139.86c0,31.59-25.7,57.3-57.3,57.3ZM390.6,48.69c-20.32,0-36.85,16.53-36.85,36.85v139.86c0,20.32,16.53,36.85,36.85,36.85s36.85-16.53,36.85-36.85V85.54c0-20.32-16.53-36.85-36.85-36.85Z"/>
    </g>
    <g>
      <rect class="cls-2" x="1286.49" y="38.47" width="94.15" height="234.01" rx="47.07" ry="47.07"/>
      <path class="cls-1" d="M1333.56,282.7c-31.59,0-57.3-25.7-57.3-57.3V85.54c0-31.59,25.7-57.3,57.3-57.3s57.3,25.7,57.3,57.3v139.86c0,31.59-25.7,57.3-57.3,57.3ZM1333.56,48.69c-20.32,0-36.85,16.53-36.85,36.85v139.86c0,20.32,16.53,36.85,36.85,36.85s36.85-16.53,36.85-36.85V85.54c0-20.32-16.53-36.85-36.85-36.85Z"/>
    </g>
  </g>
  <rect class="cls-2" x="91.29" y="350.53" width="1410.76" height="30.52"/>
</svg>